<?xml version="1.0" encoding="utf-8"?>
<!-- Generator: Adobe Illustrator 19.0.0, SVG Export Plug-In . SVG Version: 6.00 Build 0)  -->
<svg version="1.1" id="Layer_1" xmlns="http://www.w3.org/2000/svg" xmlns:xlink="http://www.w3.org/1999/xlink" x="0px" y="0px"
	 viewBox="0 0 600 600" enable-background="new 0 0 600 600" xml:space="preserve">
<g>
	<path fill="#333333" d="M300.004,138.741H138.739v161.257v161.261h161.265h161.257V299.998V138.741H300.004z M256.419,219.995
		c-1.333-4.811-5.555-9.615-10.807-12.3c-4.333-2.218-5.4-2.418-12.867-2.407c-6.8,0.007-8.837,0.322-12.4,1.918
		c-8.141,3.641-13.074,11.778-13.074,21.581v4.289h-15.037h-15.037l0.481-7.863c1.126-18.289,9.155-30.963,24.377-38.485
		c10.118-5,16.652-6.293,32.229-6.385c15.674-0.093,21.844,1.174,32.214,6.611c23.311,12.218,30.422,42.796,16.652,71.606
		c-4.126,8.637-9.096,16.066-17.237,25.792c-13.052,15.6-44.518,50.107-57.088,62.61l-12.77,12.696h-7.296h-7.289v-10.074v-10.089
		l5.081-5.837c13.244-15.244,56.377-66.225,59.258-70.055c4.422-5.881,8.763-14.781,10.222-20.97
		C257.426,236.721,257.641,224.377,256.419,219.995z M235.493,421.748h-4.03h-4.03v-12.533c0-12.237-0.052-12.578-1.985-14.518
		c-3.318-3.318-8.23-2.37-10.504,2.044c-0.919,1.763-1.222,5.155-1.222,13.674v11.333h-4.03h-4.03v-12.533
		c0-12.237-0.052-12.578-1.978-14.518c-2.778-2.77-6.37-2.622-9.378,0.385l-2.356,2.356v12.148v12.163h-4.03h-4.03v-17.733v-17.748
		h3.63c3.326,0,3.622,0.163,3.622,2.015c0,2.444,0.874,2.563,2.83,0.4c1.919-2.118,6.948-3.422,10.585-2.741
		c1.6,0.296,4.074,1.57,5.511,2.83l2.607,2.296l1.881-2c3.704-3.941,12.133-4.474,16.489-1.052c4,3.156,4.444,5.155,4.444,19.985
		V421.748z M252.427,404.015v17.733h-4.03h-4.037v-17.733v-17.748h4.037h4.03V404.015z M252.427,376.193v4.43h-4.03h-4.037v-4.43
		v-4.43h4.037h4.03V376.193z M291.13,421.748h-4.03h-4.03v-11.733c0-14.77-1.015-17.289-6.978-17.289
		c-6.089,0-7.541,3.407-7.541,17.689v11.333h-4.03h-4.03v-17.733v-17.748h4.03c3.822,0,4.03,0.118,4.03,2.148
		c0,2,0.096,2.059,1.444,0.83c4.504-4.074,12.363-4.637,16.741-1.185c3.785,2.978,4.393,5.793,4.393,20.355V421.748z
		 M291.13,346.757v12.904h-44.54h-44.533l12.881-12.904l12.881-12.889h31.651h31.659V346.757z M325.818,421.748
		c-3.8,0-4.044-0.119-4.044-2.059v-2.059l-2.859,2.178c-1.993,1.526-4,2.252-6.652,2.4c-5.222,0.296-6.985-0.207-9.711-2.756
		c-3.185-2.978-4.163-8.133-4.163-21.97v-11.289l4.23,0.237l4.237,0.237l0.4,12.622c0.467,14.459,1.081,16.015,6.4,16.015
		c6.585,0,8.104-3.526,8.111-18.8l0.007-10.326l3.822,0.252l3.837,0.237l0.215,17.54l0.215,17.541H325.818z M354.825,389.497v3.23
		h-4.03h-4.03v10.311c0,6.963,0.319,10.637,0.97,11.289c0.526,0.533,2.341,0.978,4.03,0.978c3.022,0,3.059,0.044,3.059,3.126
		c0,2.563-0.326,3.215-1.807,3.615c-2.541,0.681-7.141,0.533-9.163-0.281c-0.941-0.37-2.481-1.674-3.43-2.874
		c-1.585-2.015-1.726-3.156-1.726-14.178v-11.985h-2.415c-2.281,0-2.422-0.178-2.422-3.23c0-3.052,0.141-3.23,2.422-3.23h2.415
		v-5.23v-5.244h4.037h4.03v5.244v5.23h4.03h4.03V389.497z M380.44,421.304c-5.311,2.222-12.837,1.378-17.526-1.956
		c-4.015-2.859-4.859-5.422-4.859-14.711c0-9.985,1.156-12.785,6.711-16.252c3.111-1.941,4.585-2.311,9.015-2.311
		c4.422,0,5.896,0.37,9.015,2.311c5.541,3.437,7.118,7.022,7.059,16.029C389.788,414.208,387.469,418.371,380.44,421.304z
		 M416.328,421.585c-6.437,1.926-14.674,0.711-19.474-2.874c-2.874-2.133-2.844-2.785,0.215-4.859l2.726-1.852l3.022,2.044
		c5.415,3.674,14.096,2.237,14.096-2.326c0-2.726-1.444-3.541-8.963-5.037c-5.644-1.126-7.207-1.793-9.481-4.044
		c-2.489-2.474-2.689-3.022-2.311-6.385c0.815-7.23,8.274-11.659,17.503-10.385c3.852,0.533,8.881,3.111,9.43,4.844
		c0.133,0.444-0.963,1.585-2.444,2.548c-2.667,1.733-2.719,1.733-5.03,0.207c-4.578-3.022-11.607-1.496-11.607,2.504
		c0,2.015,1.578,2.77,9.148,4.311c3.474,0.726,7.326,2.015,8.563,2.904C428.758,408.193,425.654,418.786,416.328,421.585z
		 M425.595,277.828c-0.348,44.159-0.378,44.47-5.444,54.825c-6.489,13.259-20.103,23.452-37.177,27.852
		c-7.63,1.956-22.911,2.741-31.059,1.585c-20.963-2.963-36.451-12.77-43.911-27.822c-5.593-11.289-5.689-12.444-5.422-64.832
		l0.244-46.44l2.267-6.418c7.259-20.537,24.829-32.985,50.814-36.007c9.037-1.052,19.422-0.356,28.355,1.9l4.03,1.018l0.059,16.748
		l0.067,16.752l-3.111-3.233c-3.585-3.737-6.681-5.493-12.341-7c-16.192-4.315-32.377,3.985-36.274,18.611
		c-1.141,4.274-1.274,10.355-1.059,48.425c0.244,43.455,0.252,43.544,2.096,47.573c2.444,5.333,8.311,11.185,13.378,13.363
		c2.593,1.111,6.481,1.911,10.659,2.163c13.229,0.83,22.615-4.193,27.903-14.948l2.652-5.378l0.222-65.529
		c0.119-36.044,0.43-65.529,0.689-65.529c0.252,0,2.311,0.926,4.57,2.056c11.807,5.933,19.985,15.1,24.459,27.429
		C425.38,223.581,425.935,234.129,425.595,277.828z"/>
	<path fill="#333333" d="M371.373,393.067c-4.296,0.8-5.259,2.889-5.259,11.378c0,6.593,0.193,7.511,1.815,8.992
		c1,0.918,2.363,1.867,3.03,2.133c2.178,0.859,6.637-0.178,8.578-2c1.726-1.615,1.904-2.444,1.904-9.141
		c0-6.296-0.244-7.63-1.637-9.126C377.766,393.127,375.003,392.386,371.373,393.067z"/>
</g>
</svg>
