<?xml version="1.0" encoding="utf-8"?>
<!-- Generator: Adobe Illustrator 19.0.0, SVG Export Plug-In . SVG Version: 6.00 Build 0)  -->
<svg version="1.1" id="Layer_1" xmlns="http://www.w3.org/2000/svg" xmlns:xlink="http://www.w3.org/1999/xlink" x="0px" y="0px"
	 viewBox="0 0 600 600" enable-background="new 0 0 600 600" xml:space="preserve">
<g>
	<path fill="#333333" d="M158.306,306.146l-24.222-63.404l-25.753,63.404H158.306L158.306,306.146z M60,367.731h12.397
		l56.789-139.79h-12.394v-7.034h40.77l56.998,146.824h12.344v7.037h-42.012l-22.213-57.995H104l-23.558,57.995H60V367.731
		L60,367.731z M333.404,296.634c-14.472,5.631-30.314,6.195-50.454,1.117v70.001l35.198,0.003c11.378,0,20.834-7.463,24.238-17.61
		c3.783-11.278,3.314-27.612,1.39-36.054C341.839,305.59,337.05,299.787,333.404,296.634L333.404,296.634z M310.468,228.108H282.95
		v61.884c4.36,1.35,17.761,4.993,29.713,2.814c14.089-2.568,22.451-10.476,22.364-32.745
		C334.937,236.997,319.043,228.108,310.468,228.108L310.468,228.108z M240.702,367.731h12.008v-139.79h-12.008v-7.031l84.601-0.005
		c21.673,0,38.669,17.369,39.24,38.778c0.299,11.249-3.021,19.805-15.698,29.351c15.5,8.503,26.986,23.884,26.986,41.997
		c0,23.074-18.766,43.737-43.958,43.737h-91.172V367.731L240.702,367.731z M396.637,300.001c0-43.853,35.41-79.401,79.09-79.401
		c19.841,0,37.978,7.336,51.863,19.45l-0.461-6.129l10.253-0.707l2.615,34.881l-10.253,0.707l-0.795-10.513
		c-0.656-8.702-22.681-26.653-45.475-26.653c-33.109,0-59.945,30.609-59.945,68.365c0,37.756,26.835,68.362,59.945,68.362
		c20.048,0,37.792-11.22,48.678-28.454l7.847,6.375c-14.356,20.056-37.795,33.115-64.273,33.115
		C432.047,379.4,396.637,343.852,396.637,300.001L396.637,300.001z"/>
</g>
</svg>
