<?xml version="1.0" encoding="utf-8"?>
<!-- Generator: Adobe Illustrator 19.0.0, SVG Export Plug-In . SVG Version: 6.00 Build 0)  -->
<svg version="1.1" id="Layer_1" xmlns="http://www.w3.org/2000/svg" xmlns:xlink="http://www.w3.org/1999/xlink" x="0px" y="0px"
	 viewBox="0 0 600 600" enable-background="new 0 0 600 600" xml:space="preserve">
<g>
	<path fill="#333333" d="M73.101,282.394l-13.044,31h6.827l2.782-7h12.87l2.783,7h7l-13.043-31H73.101z M72.057,300.394l4.044-9.871
		l4.043,9.871H72.057z"/>
	<polygon fill="#333333" points="91,289.394 100,289.394 100,313.394 107,313.394 107,289.394 116,289.394 116,282.394 91,282.394 	
		"/>
	<path fill="#333333" d="M144.337,299.041c1.203-1.551,1.663-3.559,1.663-6.024v-0.086c0-3.16-0.865-5.87-2.88-7.639
		c-2.014-1.769-4.692-2.899-8.314-2.899H121v31h7v-10h4.85l6.521,10h7.826l-7.505-10.905
		C141.633,301.763,143.134,300.592,144.337,299.041z M138.425,296.358c-0.885,0.783-2.401,1.036-4.053,1.036H128v-8h6.24
		c1.652,0,3.192,0.131,4.12,0.856c0.927,0.725,1.64,1.58,1.64,3.03v0.086C140,294.67,139.308,295.575,138.425,296.358z"/>
	<polygon fill="#333333" points="152,313.394 175,313.394 175,307.394 159,307.394 159,301.394 173,301.394 173,295.394 
		159,295.394 159,288.394 175,288.394 175,282.394 152,282.394 	"/>
	<path fill="#333333" d="M200.257,298.302c-0.826-0.711-1.84-1.32-3.044-1.826c-1.203-0.508-2.573-0.964-4.108-1.37
		c-1.305-0.348-2.385-0.652-3.239-0.914c-0.855-0.26-1.529-0.536-2.022-0.826c-0.493-0.289-0.604-0.616-0.792-0.977
		c-0.189-0.363-0.053-0.79-0.053-1.283v-0.088c0-0.754,0.096-1.384,0.748-1.892c0.651-0.507,1.515-0.761,2.819-0.761
		c1.305,0,2.551,0.269,3.855,0.806c1.305,0.537,2.609,1.268,3.973,2.196l3.463-5.044c-1.565-1.246-3.289-2.203-5.16-2.87
		c-1.869-0.666-3.924-0.999-6.156-0.999c-1.565,0-3.001,0.217-4.306,0.652c-1.304,0.434-2.428,1.057-3.37,1.87
		c-0.942,0.812-1.618,1.776-2.14,2.892c-0.522,1.115-0.727,2.369-0.727,3.762v0.086c0,1.508,0.182,2.769,0.661,3.783
		c0.479,1.015,1.124,1.863,1.994,2.544c0.87,0.681,1.915,1.254,3.161,1.718c1.246,0.463,2.63,0.884,4.166,1.26
		c1.275,0.32,2.308,0.624,3.105,0.914c0.797,0.289,1.418,0.579,1.869,0.868c0.449,0.291,0.7,0.604,0.86,0.936
		c0.159,0.335,0.185,0.718,0.185,1.152v0.088c0,0.899-0.331,1.602-1.1,2.109c-0.768,0.506-1.821,0.759-3.213,0.759
		c-1.74,0-3.328-0.333-4.792-1c-1.464-0.665-2.885-1.564-4.276-2.696l-3.954,4.741c1.826,1.65,3.857,2.876,6.089,3.673
		c2.231,0.797,4.508,1.196,6.827,1.196c1.652,0,3.16-0.209,4.522-0.63c1.362-0.419,2.536-1.028,3.522-1.827
		c0.985-0.797,1.875-1.782,2.425-2.957c0.551-1.173,0.948-2.515,0.948-4.023v-0.086c0-1.335-0.331-2.478-0.751-3.436
		C201.828,299.845,201.084,299.011,200.257,298.302z"/>
	<polygon fill="#333333" points="223.657,295.267 215.657,282.394 208,282.394 208,313.394 215,313.394 215,293.583 
		223.483,306.394 223.657,306.394 232,293.453 232,313.394 239,313.394 239,282.394 231.658,282.394 	"/>
	<polygon fill="#333333" points="246,313.394 269,313.394 269,307.394 253,307.394 253,301.394 267,301.394 267,295.394 
		253,295.394 253,288.394 269,288.394 269,282.394 246,282.394 	"/>
	<path fill="#333333" d="M298.644,287.233c-1.434-1.362-3.145-2.673-5.13-3.441c-1.986-0.769-4.167-1.399-6.544-1.399H275v31h11.97
		c2.377,0,4.557-0.425,6.544-1.207c1.985-0.784,3.696-1.872,5.13-3.235c1.435-1.363,2.472-2.98,3.254-4.836
		c0.783-1.855,1.102-3.865,1.102-6.011v-0.086c0-2.146-0.319-4.139-1.102-5.981C301.116,290.198,300.079,288.596,298.644,287.233z
		 M296,298.194c0,1.362-0.153,2.594-0.602,3.696c-0.448,1.102-1.036,2.058-1.833,2.87c-0.796,0.812-1.742,1.49-2.873,1.924
		c-1.13,0.436-2.359,0.71-3.721,0.71H282v-18h4.97c1.362,0,2.609-0.007,3.739,0.442c1.131,0.449,2.095,0.964,2.891,1.776
		c0.797,0.812,1.349,1.725,1.797,2.856c0.449,1.131,0.602,2.305,0.602,3.638V298.194z"/>
	<rect x="309" y="282.394" fill="#333333" width="7" height="31"/>
	<path fill="#333333" d="M333.684,282.394l-13.046,31h6.828l2.782-7h12.869l2.784,7h6.999l-13.042-31H333.684z M332.639,300.394
		l4.045-9.871l4.042,9.871H332.639z"/>
	<polygon fill="#999999" points="454,332.291 498,299.758 498,299.518 454,267.345 	"/>
	<polygon fill="#999999" points="498,297.138 498,238.243 454.593,265.595 	"/>
	<polygon fill="#999999" points="498,361.765 498,302.146 454.578,334.054 	"/>
	<polygon fill="#999999" points="500,300.923 500,363.272 539.956,330.322 	"/>
	<polygon fill="#999999" points="500,236.331 500,298.342 539.952,268.946 	"/>
	<polygon fill="#999999" points="454,263.866 498,235.968 498,234.76 454,198.616 	"/>
	<polygon fill="#999999" points="451,263.621 451,198.399 401.641,226.481 	"/>
	<polygon fill="#999999" points="451,332.255 451,267.473 401.179,299.638 	"/>
	<polygon fill="#999999" points="451,401.601 451,336.111 401.17,373.264 	"/>
	<polygon fill="#999999" points="454,401.37 498,364.859 498,364.047 454,335.793 	"/>
</g>
</svg>
