<?xml version="1.0" encoding="utf-8"?>
<!-- Generator: Adobe Illustrator 19.0.0, SVG Export Plug-In . SVG Version: 6.00 Build 0)  -->
<svg version="1.1" id="Layer_1" xmlns="http://www.w3.org/2000/svg" xmlns:xlink="http://www.w3.org/1999/xlink" x="0px" y="0px"
	 viewBox="0 0 600 600" enable-background="new 0 0 600 600" xml:space="preserve">
<g id="_x23_f8ed78ff" transform="matrix(0.42618257,0,0,0.42618257,-5.948794,-16.616858)">
	<path id="path15" fill="#999999" d="M394.385,504.6c10.064-1.711,21.445,0.395,28.673,8.054c2.465,3.04,4.895,7.216,3.171,11.177
		c-1.137,3.411-5.337,3.985-8.389,3.339c-4.368-1.699-5.565-7.049-9.49-9.37c-3.435-1.843-7.599-2.621-11.345-1.304
		c-7.12,1.879-11.321,9.167-12.146,16.084c-0.634,7.132-0.419,15.15,4.356,20.954c4.93,6.067,15.701,7.862,21.026,1.364
		c3.004-2.896,4.775-8.568,9.801-8.078c3.004-0.144,5.828,1.843,6.797,4.667c0.215,7.826-6.175,14.001-12.96,16.79
		c-6.163,2.824-13.14,2.621-19.722,1.963c-10.04-1.352-19.41-8.365-22.199-18.309c-3.458-11.488-3.147-24.975,3.614-35.255
		C379.726,510.164,386.834,505.892,394.385,504.6z"/>
	<path id="path17" fill="#999999" d="M516.879,508.465c1.137-4.153,6.127-4.236,9.645-4.105c3.231-0.227,6.953,0.898,8.138,4.236
		c6.007,16.06,11.596,32.287,17.508,48.382c1.053,2.884,2.238,5.924,1.604,9.047c-1.831,4.859-9.382,6.079-12.505,1.963
		c-1.951-3.841-2.872-8.114-4.619-12.051c-7.659,0.096-15.33,0.048-22.988,0.024c-1.46,3.997-2.621,8.126-4.44,11.991
		c-2.836,3.889-10.411,3.339-12.218-1.328c-0.898-2.956,0.06-6.019,1.113-8.784C504.469,541.422,510.453,524.86,516.879,508.465
		 M525.436,521.425c-2.609,7.91-5.194,15.82-7.934,23.683c5.17,0,10.339,0,15.521,0C530.378,537.246,528.02,529.3,525.436,521.425z"
		/>
	<path id="path19" fill="#999999" d="M886.885,510.799c-0.012-5.816,7.276-7.372,11.787-6.031c3.076,0.67,4.691,3.566,6.211,6.043
		c7.755,12.9,15.988,25.514,23.647,38.462c0.335-13.2-0.096-26.423,0.215-39.623c0.06-5.014,6.69-6.426,10.459-4.547
		c2.776,1.065,3.59,4.296,3.411,7.001c-0.048,16.742,0.024,33.484-0.024,50.213c0.024,3.255-1.639,6.773-4.978,7.671
		c-3.853,0.79-9.011,1.041-11.309-2.86c-8.664-13.367-17.029-26.938-25.609-40.353c0,12.637,0.108,25.286-0.024,37.935
		c-0.084,6.833-11.309,7.85-13.547,1.891c-0.562-2.585-0.347-5.253-0.383-7.874C886.873,542.75,886.586,526.775,886.885,510.799
		L886.885,510.799z"/>
	<path id="path21" fill="#999999" d="M1035.06,510.667c0.909-2.872,2.621-6.115,6.091-6.139c4.452-0.371,10.866-0.921,12.733,4.272
		c6.139,16.455,11.871,33.053,17.914,49.543c0.922,2.573,1.927,5.529,0.85,8.209c-2.19,5.074-10.83,5.349-12.912,0.072
		c-1.46-3.494-2.489-7.144-3.877-10.663c-7.659,0.036-15.306,0.024-22.953,0.012c-1.687,4.129-2.788,8.508-4.847,12.47
		c-2.836,2.728-8.233,2.812-10.95-0.12c-1.819-2.621-1.257-6.139-0.395-8.999C1022.794,543.085,1029.029,526.906,1035.06,510.667
		 M1044.61,521.557c-2.693,7.862-5.218,15.772-7.946,23.623c5.158-0.12,10.327-0.084,15.497-0.048
		C1049.588,537.293,1047.123,529.407,1044.61,521.557z"/>
	<path id="path23" fill="#999999" d="M630.912,506.574c4.859-1.855,10.22-0.622,15.306-0.957c9.55-0.251,20.2-0.395,28.015,6.019
		c8.508,6.917,10.22,18.824,9.657,29.139c-0.491,9.538-4.667,19.482-13.283,24.377c-10.304,5.864-22.618,3.877-33.95,4.176
		c-3.901,0.323-8.592-1.46-9.035-5.888c-0.335-16.299,0-32.634-0.156-48.945C627.358,511.624,627.849,507.759,630.912,506.574
		 M642.46,517.919c0.06,13.068-0.168,26.148,0.108,39.216c5.481-0.299,11.117,0.539,16.479-0.898
		c7.228-2.537,9.609-10.806,9.933-17.723c0.012-6.319-0.874-13.666-6.055-17.95C657,516.148,649.258,518.481,642.46,517.919
		L642.46,517.919z"/>
	<path id="path25" fill="#999999" d="M760.646,514.568c-0.132-3.949,1.771-8.58,6.283-8.856c11.596-0.263,23.216,0.012,34.824-0.132
		c2.705,0.072,6.151-0.251,8.006,2.202c1.592,2.597,1.472,6.701-1.209,8.568c-2.082,1.113-4.5,1.077-6.773,1.101
		c-8.844-0.06-17.675-0.036-26.507-0.024c0.024,4.428,0.024,8.856-0.012,13.283c8.066,0.132,16.131-0.096,24.197,0.096
		c2.369,0.335,5.852,0.275,6.785,3.052c0.921,2.824,0.646,7.695-3.183,8.006c-9.238,0.431-18.513,0.036-27.763,0.168
		c-0.012,5.182-0.036,10.363,0.024,15.545c9.609,0.024,19.231,0,28.84,0c2.369,0.036,5.457,0.036,6.666,2.525
		c0.694,2.106,0.778,4.464-0.048,6.546c-1.735,2.513-4.99,2.645-7.755,2.705c-10.387,0.048-20.763,0-31.15,0.024
		c-2.932-0.156-6.259,0.179-8.664-1.831c-2.453-2.202-2.429-5.792-2.621-8.82C760.646,544.007,760.514,529.276,760.646,514.568
		L760.646,514.568z"/>
	<path id="path27" fill="#333333" d="M244.823,629.056c4.129-0.67,8.329-0.838,12.517-0.862c76.995,0,153.991,0,230.974,0
		c10.327-0.263,19.506,8.891,19.865,19.099c0.072,9.215-0.012,18.417,0.036,27.632c0.024,8.903-6.701,17.137-15.234,19.351
		c-3.853,1.113-7.91,0.67-11.859,0.754c-74.195-0.024-148.402,0-222.609-0.012c-19.446,0.287-36.882,17.723-36.631,37.277
		c-0.778,15.76,9.825,30.946,24.484,36.415c4.954,1.987,10.351,2.609,15.665,2.585c46.695-0.036,93.39,0.012,140.097-0.024
		c24.401-0.407,48.777,8.221,67.625,23.695c18.98,15.342,32.179,37.636,36.667,61.606c4.428,23.048,0.91,47.545-10.016,68.331
		c-14.671,28.649-43.272,49.699-75.057,54.94c-8.293,1.735-16.79,1.34-25.202,1.376c-71.407,0-142.802,0-214.208,0
		c-5.289-0.12-10.986,0.754-15.796-1.987c-7.288-3.411-11.799-11.512-11.369-19.47c0.096-8.784-0.072-17.568,0.072-26.339
		c0.574-10.615,10.459-19.41,21.026-19.016c76.612-0.048,153.225,0.024,229.837-0.036c19.458-0.945,36.332-18.872,35.422-38.474
		c0.455-19.913-17.4-37.648-37.205-37.696c-42.483-0.096-84.977-0.227-127.46,0.203c-14.049,0.108-28.29,0.251-41.992-3.279
		c-24.401-6.055-46.539-21.086-60.84-41.812c-11.955-17.077-18.68-37.78-18.86-58.638c-0.503-25.37,8.64-50.812,25.25-69.995
		C196.368,645.499,219.836,632.503,244.823,629.056L244.823,629.056z"/>
	<path id="path29" fill="#333333" d="M541.615,638.474c3.482-6.043,10.064-10.77,17.28-10.292
		c104.101,0.036,208.201-0.012,312.313,0.024c10.734-0.215,20.021,9.729,19.949,20.308c-0.024,8.82,0.012,17.651-0.024,26.471
		c-0.084,10.902-10.076,20.523-21.002,20.045c-88.591-0.012-177.195-0.012-265.786,0c0,25.418-0.024,50.836,0.024,76.265
		c76.576-0.036,153.153,0,229.73-0.024c7.791-0.06,15.653,4.452,18.86,11.68c3.303,6.977,1.604,14.899,2.01,22.33
		c-0.347,6.845,1.089,14.025-1.615,20.535c-3.183,7.491-11.034,12.553-19.135,12.565c-76.624,0.06-153.249,0-229.873,0.024
		c0,25.406,0,50.8,0,76.206c88.986,0,177.972,0.012,266.947,0c10.076,0.084,19.028,8.64,19.745,18.668
		c0.263,9.203,0.036,18.417,0.108,27.62c0.132,10.567-9.035,20.858-19.901,20.332c-32.73-0.024-65.447,0-98.165-0.012
		c-6.797-0.335-13.547,0.778-20.32,0.527c-63.82-0.024-127.628-0.012-191.447-0.012c-4.787-0.06-9.825-0.79-13.69-3.853
		c-7.431-5.493-10.327-15.222-10.1-24.137c-0.012-98.931,0.012-197.85-0.012-296.78
		C537.331,650.596,538.264,644.003,541.615,638.474L541.615,638.474z"/>
	<path id="path31" fill="#333333" d="M920.273,648.466c-0.419-10.83,9.526-20.691,20.344-20.272
		c76.995,0.012,153.979-0.024,230.974,0.024c36.882,0.431,72.328,22.51,89.513,55.072c16.383,30.025,16.706,68.247,0.658,98.488
		c-6.725,13.259-16.646,24.76-28.194,34.07c-39.455,33.591-78.731,67.41-118.209,100.977c28.338-0.072,56.64-1.28,84.977-1.233
		c20.368-0.12,40.7-1.161,61.067-0.969c10.339,0.251,19.219,9.49,19.482,19.769c0.227,8.796,0.108,17.615,0.06,26.423
		c0,8.7-5.852,16.993-14.145,19.686c-5.301,1.46-10.83,1.268-16.263,1.233c-67.434-0.012-134.868,0.024-202.301-0.012
		c-11.704,0.144-23.587-4.344-31.246-13.403c-13.547-14.911-12.374-40.4,2.752-53.815
		c58.183-51.135,116.391-102.258,174.574-153.404c10.112-9.095,14.696-23.922,11.177-37.098c-3.889-16.323-19.47-28.84-36.26-28.984
		c-60.708,0.012-121.417,0-182.125,0.012c-0.012,88.639-0.012,177.278,0,265.918c0.156,9.023-6.39,17.723-15.198,19.853
		c-7.12,1.556-14.456,0.73-21.672,0.933c-6.247-0.036-12.888,0.467-18.668-2.334c-6.869-3.363-11.608-10.83-11.297-18.537
		C920.273,856.727,920.273,752.603,920.273,648.466L920.273,648.466z"/>
</g>
</svg>
