<?xml version="1.0" encoding="utf-8"?>
<!-- Generator: Adobe Illustrator 19.0.0, SVG Export Plug-In . SVG Version: 6.00 Build 0)  -->
<svg version="1.1" id="Layer_1" xmlns="http://www.w3.org/2000/svg" xmlns:xlink="http://www.w3.org/1999/xlink" x="0px" y="0px"
	 viewBox="0 0 600 600" enable-background="new 0 0 600 600" xml:space="preserve">
<g>
	<path fill="#333333" d="M113.453,321.414L113.453,321.414c-3.768,3.72-8.942,6.019-14.655,6.019
		c-11.521,0-20.861-9.34-20.861-20.861c0-11.521,9.34-20.861,20.861-20.861c6.102,0,11.591,2.62,15.405,6.796l0,0l11.452-11.246
		c-6.931-7.339-16.746-11.927-27.638-11.927C77.021,269.333,60,286.354,60,307.351c0,20.997,17.021,38.018,38.018,38.018
		c10.897,0,20.716-4.592,27.648-11.938L113.453,321.414z"/>
	<rect x="129.017" y="269.333" fill="#333333" width="14.232" height="76.426"/>
	<polygon fill="#333333" points="202,270.394 187,270.394 187,309.106 148,269.333 148,346.394 161,346.394 161,304.965 
		202,345.369 	"/>
	<polygon fill="#333333" points="245,284.394 245,270.394 207,270.394 207,346.394 245,346.394 245,332.394 221,332.394 
		221,313.394 244,313.394 244,299.394 221,299.394 221,284.394 	"/>
	<polygon fill="#333333" points="341.757,346.394 324.273,260.682 295.126,311.409 265.881,260.762 248.3,346.394 267.53,346.394 
		272.9,310.593 295.126,347.867 317.254,310.672 322.577,346.394 	"/>
	<path fill="#333333" d="M366.872,268.928l-32.494,77.466h16.247l4.354-12h24.045l4.354,12h16.247L366.872,268.928z
		 M360.244,321.394l6.629-17.677l6.889,17.677H360.244z"/>
	<path fill="#333333" d="M507.246,268.928l-32.494,77.466h16.247l4.354-12h24.045l4.354,12H540L507.246,268.928z M500.617,321.394
		l6.629-17.677l6.889,17.677H500.617z"/>
	<polygon fill="#333333" points="455,270.394 440,270.394 440,309.106 400,269.333 400,346.394 414,346.394 414,304.965 
		455,345.369 	"/>
	<rect x="459.675" y="269.333" fill="#333333" width="14.232" height="76.426"/>
	<path fill="#999999" d="M461.625,268.017l-3.071-5.02l12.866-10.698c0.232-0.193,0.497-0.059,0.735,0.125
		c1.641,1.265,3.787,4.807,4.265,7.108c0.057,0.275,0.058,0.554-0.19,0.686L461.625,268.017z"/>
</g>
</svg>
