<?xml version="1.0" encoding="utf-8"?>
<!-- Generator: Adobe Illustrator 19.0.0, SVG Export Plug-In . SVG Version: 6.00 Build 0)  -->
<svg version="1.1" id="Layer_1" xmlns="http://www.w3.org/2000/svg" xmlns:xlink="http://www.w3.org/1999/xlink" x="0px" y="0px"
	 viewBox="0 0 600 600" enable-background="new 0 0 600 600" xml:space="preserve">
<g id="_x30_NPt2o.tif">
	<g>
		<path fill="#999999" d="M60,307.736c0.236-1.203,0.405-2.424,0.72-3.606c1.79-6.724,7.949-11.428,14.829-11.368
			c6.21,0.055,11.689,4.718,12.925,11.031c0.213,1.09,0.321,2.2,0.502,3.471c-0.586,0-1.009,0-1.433,0
			c-5.264,0-10.527-0.001-15.791,0c-1.57,0-1.588,0.003-1.567,1.621c0.038,3.038-0.22,6.091,0.607,9.084
			c0.99,3.583,3.254,5.296,6.999,5.209c3.737-0.086,6.5-1.885,8.389-5c0.837-1.38,1.417-2.924,2.026-4.429
			c0.25-0.619,0.522-0.897,1.311-0.632c-0.998,4.761-3.208,8.711-7.875,10.569c-9.031,3.596-20.216-1.507-21.389-12.731
			c-0.037-0.352-0.165-0.695-0.251-1.042C60,309.189,60,308.462,60,307.736z M74.525,306.243c1.16,0,2.32-0.022,3.479,0.009
			c0.651,0.017,0.943-0.246,0.916-0.887c-0.112-2.709-0.096-5.431-0.374-8.123c-0.237-2.292-1.571-3.288-3.919-3.385
			c-2.179-0.09-3.69,0.902-3.975,3.156c-0.357,2.822-0.348,5.692-0.428,8.543c-0.006,0.221,0.522,0.636,0.823,0.656
			C72.202,306.289,73.365,306.243,74.525,306.243z"/>
		<path fill="#999999" d="M540,314.491c-0.161,0.737-0.306,1.477-0.485,2.21c-1.113,4.572-5.124,7.774-9.818,7.998
			c-2.38,0.114-4.58-0.552-6.82-1.145c-0.865-0.228-1.797-0.458-2.66-0.358c-0.757,0.087-1.464,0.627-2.185,0.983
			c-0.369,0.182-0.722,0.398-1.279,0.708c-0.043-0.762-0.091-1.223-0.092-1.683c-0.007-2.905-0.019-5.81,0.019-8.714
			c0.005-0.347,0.302-0.69,0.464-1.034c0.315,0.234,0.731,0.403,0.929,0.711c1.153,1.796,2.137,3.712,3.402,5.422
			c1.704,2.306,4.052,3.699,6.954,4.029c2.981,0.339,6.61-0.97,7.174-4.889c0.232-1.61-0.256-2.863-1.61-3.749
			c-1.841-1.206-3.949-1.58-6.077-1.852c-2.456-0.314-4.848-0.834-7.089-1.939c-2.904-1.432-4.276-3.798-4.321-6.983
			c-0.073-5.191,2.511-9.313,6.875-10.894c2.786-1.009,5.564-0.651,8.315,0.214c0.587,0.185,1.185,0.341,1.76,0.558
			c1.144,0.432,2.1,0.362,2.861-0.759c0.18-0.266,0.695-0.305,1.221-0.513c0,3.387,0,6.525,0,9.695
			c-0.673,0.302-0.972,0.098-1.311-0.575c-0.873-1.736-1.684-3.564-2.888-5.059c-2.339-2.905-6.86-3.826-9.996-2.251
			c-1.703,0.855-2.958,2.118-3.02,4.18c-0.075,2.508,1.499,4.035,4.37,4.428c2.828,0.387,5.682,0.704,8.453,1.358
			c3.308,0.78,5.776,2.67,6.497,6.255c0.113,0.563,0.238,1.124,0.357,1.686C540,313.183,540,313.837,540,314.491z"/>
		<path fill="#999999" d="M315.874,293.213c0,1.738,0,3.703,0,5.668c0.085,0.043,0.17,0.086,0.256,0.13
			c2.407-3.858,5.762-6.114,10.342-6.241c4.266-0.118,8.442,1.519,9.961,6.378c0.292-0.393,0.52-0.677,0.722-0.978
			c3.282-4.885,9.427-6.772,14.876-4.513c3.286,1.363,5.026,3.928,5.078,7.434c0.102,6.751,0.042,13.504,0.051,20.256
			c0.002,1.483,0.004,1.48,1.489,1.486c0.689,0.002,1.379,0.013,2.068,0.026c0.066,0.001,0.131,0.05,0.221,0.086
			c0.267,0.629,0.068,0.941-0.637,0.94c-5.264-0.002-10.528-0.002-15.791,0.001c-0.706,0-0.905-0.31-0.585-1.071
			c1.184,0,2.401,0,3.699,0c0.022-0.507,0.054-0.895,0.054-1.284c0.003-7.224,0.007-14.448-0.006-21.672
			c-0.001-0.683-0.061-1.378-0.198-2.047c-0.416-2.044-1.412-2.809-3.5-2.766c-2.951,0.06-5.552,2.067-6.597,5.296
			c-0.407,1.257-0.652,2.62-0.668,3.939c-0.071,5.735-0.008,11.471-0.051,17.207c-0.008,1.019,0.24,1.486,1.326,1.358
			c0.644-0.076,1.31-0.056,1.956,0.012c0.228,0.024,0.427,0.321,0.639,0.494c-0.219,0.176-0.417,0.399-0.665,0.513
			c-0.181,0.083-0.428,0.025-0.646,0.025c-4.828,0.001-9.656,0.001-14.485-0.001c-0.29,0-0.611,0.055-0.861-0.05
			c-0.205-0.086-0.39-0.357-0.449-0.581c-0.024-0.091,0.301-0.384,0.482-0.399c0.649-0.052,1.305-0.025,1.959-0.027
			c1.461-0.003,1.463-0.003,1.464-1.51c0.001-5.627,0.017-11.254-0.008-16.88c-0.009-2.101-0.018-4.21-0.206-6.299
			c-0.198-2.213-1.462-3.181-3.677-3.09c-3.318,0.136-6.072,2.754-6.851,6.551c-0.145,0.706-0.245,1.435-0.247,2.153
			c-0.02,5.99-0.013,11.98-0.009,17.97c0,0.319,0.039,0.637,0.07,1.105c0.835,0,1.626-0.054,2.405,0.021
			c0.448,0.043,1.247-0.406,1.219,0.517c-0.006,0.186-0.828,0.486-1.28,0.496c-2.177,0.052-4.356,0.024-6.534,0.024
			c-2.832,0-5.663-0.003-8.495,0.001c-0.655,0.001-1.203-0.067-0.816-1.059c0.953,0,1.928-0.043,2.898,0.013
			c0.819,0.048,1.071-0.272,1.062-1.067c-0.032-3.013-0.012-6.026-0.012-9.039c0-5.554-0.021-11.109,0.019-16.663
			c0.007-0.979-0.244-1.384-1.274-1.284c-0.893,0.086-1.801,0.018-2.774,0.018c-0.025-0.395-0.045-0.703-0.063-0.989
			C307.152,293.618,311.43,293.419,315.874,293.213z"/>
		<path fill="#333333" d="M130.183,299.005c0,7.977,0,15.807,0,23.78c0.422,0,0.807,0.012,1.191-0.002
			c3.694-0.128,7.429,0.041,11.073-0.458c6.52-0.894,9.863-4.756,10.387-11.321c0.052-0.651,0.051-1.31,0.168-1.949
			c0.041-0.227,0.36-0.403,0.552-0.602c0.171,0.216,0.491,0.431,0.492,0.648c0.028,4.86,0.022,9.721,0.022,14.698
			c-0.403,0.028-0.747,0.072-1.091,0.072c-12.742,0.004-25.484,0.002-38.227,0.005c-0.636,0-1.341,0.108-0.995-1.06
			c1.775,0,3.605,0,5.499,0c0-15.362,0-30.592,0-46.005c-1.581,0-3.161,0.008-4.742-0.003c-0.818-0.006-0.817-0.022-0.792-1.011
			c12.687,0,25.376,0,38.154,0c0,4.347,0,8.714,0,13.097c-0.611,0.215-0.884,0.056-1.011-0.634
			c-0.268-1.457-0.542-2.927-0.999-4.331c-1.136-3.487-3.538-5.654-7.132-6.47c-4.116-0.934-8.288-0.573-12.517-0.65
			c0,7.058,0,14.012,0,21.105c2.899-0.067,5.946,0.665,8.449-1.594c2.431-2.195,2.747-5.152,2.774-8.205
			c0.647-0.246,1.088-0.289,1.087,0.584c-0.01,6.571-0.009,13.141-0.016,19.712c0,0.102-0.055,0.204-0.1,0.362
			c-0.271,0.016-0.546,0.032-0.876,0.051c-0.045-0.25-0.083-0.454-0.117-0.658c-0.27-1.6-0.335-3.27-0.854-4.784
			c-0.973-2.838-3.362-4.356-6.362-4.377C132.897,298.998,131.595,299.005,130.183,299.005z"/>
		<path fill="#999999" d="M226.335,294.808c0-0.448,0-0.73,0-1.109c4.355-0.231,8.732,0.392,13.147-0.927c0,2.111,0,4.074,0,6.038
			c0.099,0.039,0.199,0.078,0.298,0.117c0.268-0.348,0.539-0.693,0.803-1.044c3.473-4.617,9.616-6.406,14.879-4.28
			c3.189,1.288,5.08,3.671,5.146,7.132c0.125,6.64,0.072,13.284,0.093,19.926c0.001,0.363,0.028,0.728-0.004,1.089
			c-0.076,0.856,0.29,1.158,1.14,1.096c0.9-0.065,1.808-0.015,2.724-0.015c0.369,0.736,0.161,1.055-0.6,1.055
			c-5.336-0.002-10.673,0.005-16.009-0.027c-0.246-0.001-0.489-0.353-0.734-0.541c0.26-0.162,0.513-0.449,0.781-0.464
			c1.003-0.056,2.011-0.022,3.1-0.022c0.024-0.521,0.056-0.909,0.056-1.297c0.003-7.224,0.005-14.448-0.002-21.672
			c-0.001-0.578,0-1.17-0.112-1.732c-0.498-2.49-1.963-3.457-4.484-3.012c-3.307,0.585-5.874,3.344-6.407,6.952
			c-0.148,1-0.223,2.02-0.227,3.031c-0.022,5.409-0.011,10.818-0.01,16.227c0,1.499,0.002,1.498,1.452,1.502
			c0.762,0.002,1.524,0.008,2.286,0.016c0.069,0.001,0.137,0.036,0.25,0.067c0.322,0.677,0.083,0.973-0.663,0.973
			c-5.373-0.003-10.745,0.007-16.117-0.027c-0.274-0.002-0.545-0.369-0.817-0.566c0.267-0.154,0.524-0.417,0.803-0.442
			c0.72-0.063,1.455-0.076,2.175-0.009c0.941,0.087,1.162-0.328,1.155-1.196c-0.034-4.174-0.015-8.349-0.015-12.524
			c0-4.392-0.023-8.785,0.018-13.177c0.009-0.915-0.284-1.22-1.182-1.154C228.324,294.862,227.382,294.808,226.335,294.808z"/>
		<path fill="#999999" d="M467.975,318.193c-0.08,2.876-2.26,5.584-5.275,6.264c-3.111,0.702-7.126,0.329-9.062-3.972
			c-0.114,0.087-0.251,0.144-0.313,0.246c-1.636,2.693-4.126,3.885-7.176,4.003c-3.136,0.121-6.236-0.051-9.115-1.524
			c-2.624-1.342-4.168-3.41-4.392-6.397c-0.246-3.29,1.075-5.778,3.859-7.495c2.619-1.616,5.554-2.275,8.558-2.594
			c2.411-0.256,4.843-0.327,7.265-0.479c0.458-0.029,1.038,0.084,1.005-0.649c-0.118-2.675-0.196-5.353-0.41-8.021
			c-0.154-1.918-1.392-2.939-3.228-3.298c-2.312-0.452-4.608-0.513-6.858,0.308c-0.437,0.159-0.864,0.387-1.243,0.657
			c-0.833,0.591-0.818,0.987,0.01,1.559c0.328,0.227,0.678,0.421,1.008,0.645c1.642,1.121,2.215,2.785,1.609,4.653
			c-0.475,1.462-1.805,2.295-3.672,2.337c-1.374,0.03-2.724-0.068-3.716-1.156c-1.316-1.444-1.306-3.158-0.767-4.901
			c0.626-2.026,2.165-3.226,3.991-4.07c3.18-1.47,6.58-1.842,9.995-1.427c2.347,0.285,4.714,0.828,6.933,1.639
			c3.53,1.29,5.459,3.884,5.431,7.803c-0.034,4.754,0.009,9.51,0.066,14.264c0.013,1.115,0.074,2.269,0.385,3.324
			c0.169,0.573,0.834,1.168,1.417,1.409c0.793,0.328,1.471-0.205,1.871-0.93c0.295-0.534,0.458-1.142,0.762-1.669
			c0.182-0.315,0.523-0.538,0.792-0.803C467.794,318.01,467.884,318.102,467.975,318.193z M453.526,312.2
			c-0.062-0.006-0.123-0.012-0.185-0.018c0-1.305-0.023-2.61,0.01-3.913c0.016-0.628-0.17-0.994-0.845-0.928
			c-1.975,0.195-3.965,0.304-5.918,0.633c-2.232,0.376-3.409,1.916-3.8,4.075c-0.444,2.454-0.338,4.905,0.218,7.328
			c0.389,1.697,1.279,3,3.092,3.415c3.261,0.746,6.067-0.875,6.746-4.14C453.283,316.545,453.313,314.353,453.526,312.2z"/>
		<path fill="#999999" d="M283.684,324.76c-8.064,0.331-16.407-6.393-16.402-15.932c0.005-8.629,7.629-16.065,16.464-16.066
			c8.937-0.001,16.524,7.395,16.505,16.112C300.234,317.213,292.535,325.149,283.684,324.76z M290.08,309.7
			c-0.146-3.915-0.18-6.926-0.389-9.925c-0.274-3.921-1.909-5.575-5.59-5.904c-3.075-0.275-5.233,1.233-5.963,4.184
			c-0.13,0.526-0.289,1.066-0.291,1.599c-0.021,6.086-0.083,12.173,0.029,18.257c0.033,1.8,0.55,3.612,2.178,4.787
			c3.597,2.598,8.79,0.64,9.399-3.717C289.923,315.624,289.926,312.2,290.08,309.7z"/>
		<path fill="#333333" d="M207.162,324.808c-9.342-0.069-16.477-7.149-16.366-16.303c0.099-8.25,7.613-15.948,16.863-15.77
			c8.585,0.165,16.107,7.627,16.049,16.141C223.649,317.559,216.052,324.874,207.162,324.808z M200.817,308.697
			c0.261,3.578,0.34,7.141,0.83,10.647c0.429,3.069,2.373,4.363,5.667,4.354c3.16-0.008,4.965-1.405,5.611-4.366
			c0.123-0.565,0.248-1.143,0.26-1.718c0.096-4.679,0.228-9.358,0.212-14.037c-0.007-1.872-0.196-3.779-0.592-5.607
			c-0.631-2.913-2.568-4.18-5.786-4.1c-3.058,0.075-4.975,1.427-5.37,4.335C201.178,301.678,201.078,305.202,200.817,308.697z"/>
		<path fill="#999999" d="M92.199,275.912c4.399-0.168,8.762-0.335,13.305-0.509c0,0.23,0,0.683,0,1.136c0,14.919,0,29.839,0,44.758
			c0,1.532,0.003,1.532,1.549,1.534c0.653,0.001,1.312-0.043,1.958,0.026c0.233,0.025,0.437,0.32,0.654,0.492
			c-0.223,0.176-0.426,0.399-0.677,0.514c-0.181,0.083-0.428,0.025-0.646,0.025c-5.082,0.001-10.164,0-15.246,0
			c-0.181,0-0.398,0.057-0.537-0.021c-0.266-0.15-0.489-0.377-0.73-0.572c0.234-0.154,0.461-0.426,0.705-0.441
			c0.868-0.055,1.742-0.045,2.612-0.018c0.606,0.019,0.875-0.231,0.839-0.832c-0.013-0.217,0.002-0.435,0.002-0.653
			c0-14.339,0.001-28.677,0-43.016c0-1.5-0.003-1.501-1.494-1.509c-0.544-0.003-1.089-0.009-1.633-0.004
			C92.156,276.828,91.946,276.52,92.199,275.912z"/>
		<path fill="#999999" d="M511.811,312.955c-1.038,4.67-3.187,8.524-7.686,10.496c-7.708,3.378-19.034-0.109-21.334-10.93
			c-1.561-7.345,1.119-14.047,7.027-17.712c8.102-5.026,18.554-1.39,20.909,8.773c0.251,1.082,0.334,2.202,0.528,3.526
			c-6.342,0-12.521,0-18.808,0c0.08,3.745-0.289,7.292,0.625,10.797c1.096,4.203,4.361,5.502,8.059,5.037
			c4.421-0.556,6.897-3.508,8.618-7.293c0.298-0.656,0.525-1.351,0.723-2.045C510.663,312.928,510.98,312.587,511.811,312.955z
			 M496.777,306.051c1.196,0,2.392-0.017,3.587,0.008c0.544,0.011,0.832-0.187,0.811-0.742c-0.105-2.744-0.097-5.499-0.362-8.228
			c-0.212-2.189-1.535-3.265-3.58-3.36c-2.49-0.116-3.973,0.71-4.285,3.001c-0.393,2.887-0.365,5.832-0.457,8.755
			c-0.006,0.18,0.518,0.525,0.81,0.541C494.456,306.089,495.617,306.051,496.777,306.051z"/>
		<path fill="#999999" d="M415.034,294.816c-1.264,0-2.446,0-3.69,0c0-0.423,0-0.731,0-1.026c0.986-0.175,1.964-0.26,2.887-0.529
			c3.532-1.031,5.79-3.553,7.24-6.753c0.887-1.958,1.4-4.097,1.948-6.19c0.201-0.767,0.446-0.976,1.248-0.71
			c0,4.628,0,9.257,0,13.996c2.188,0,4.275,0,6.446,0c0,0.441,0,0.771,0,1.211c-2.13,0-4.219,0-6.38,0
			c-0.026,0.454-0.063,0.805-0.063,1.157c-0.003,7.439-0.01,14.878,0.009,22.317c0.002,0.717,0.086,1.453,0.264,2.146
			c0.339,1.32,1.308,1.839,2.654,1.571c1.6-0.318,2.526-1.462,3.396-2.776c0.296,0.194,0.556,0.365,0.855,0.562
			c-0.88,1.893-2.325,3.103-4.086,3.971c-2.271,1.119-4.701,1.248-7.123,0.82c-3.071-0.543-4.733-2.446-5.186-5.757
			c-0.201-1.467-0.307-2.958-0.315-4.439c-0.035-5.987-0.012-11.975-0.018-17.963C415.119,295.925,415.067,295.426,415.034,294.816z
			"/>
		<path fill="#333333" d="M187.703,314.441c-0.202,4.078-3.372,8.263-7.478,9.568c-6.475,2.058-14.825,0.521-19.467-6.977
			c-4.042-6.53-2.322-15.372,3.981-20.312c5.292-4.148,11.181-5.153,17.491-2.677c3.54,1.389,5.181,4.002,5.026,7.464
			c-0.096,2.148-1.569,3.69-3.704,3.822c-0.684,0.042-1.392,0.06-2.06-0.064c-2.888-0.536-4.373-3.644-3.007-6.325
			c0.373-0.732,0.911-1.396,1.457-2.018c0.668-0.762,0.511-1.367-0.2-1.937c-3.067-2.457-8.878-0.815-9.94,2.935
			c-0.527,1.859-0.776,3.849-0.81,5.785c-0.07,4.022,0.059,8.049,0.172,12.073c0.027,0.968,0.239,1.946,0.486,2.888
			c0.906,3.451,3.321,5.111,6.962,4.849c4.957-0.356,8.148-3.022,9.852-8.273C186.678,314.581,186.876,314.072,187.703,314.441z"/>
		<path fill="#999999" d="M384.966,324.83c0-3.949,0-7.57,0-11.196c0.761-0.411,1.07-0.034,1.438,0.584
			c1.164,1.957,2.237,4.005,3.662,5.761c2.408,2.968,5.598,4.318,9.465,3.507c2.937-0.616,4.703-3.133,4.347-6.103
			c-0.164-1.367-1.071-2.301-2.265-2.7c-1.942-0.649-3.969-1.041-5.954-1.563c-2.056-0.541-4.178-0.928-6.143-1.706
			c-3.56-1.41-4.824-4.367-4.794-8.014c0.039-4.803,3.461-9.218,7.997-10.338c2.37-0.585,4.675-0.235,6.96,0.442
			c0.867,0.257,1.736,0.513,2.591,0.806c0.93,0.318,1.583-0.02,2.198-0.717c0.298-0.337,0.778-0.513,1.401-0.904
			c0,3.53,0,6.67,0,9.833c-0.712,0.317-1.095,0.129-1.37-0.631c-0.887-2.453-2.075-4.737-4.296-6.269
			c-2.41-1.663-5.059-2.144-7.858-1.21c-1.803,0.602-3.169,1.75-3.639,3.709c-0.529,2.201,0.671,4.369,2.893,4.84
			c2.082,0.442,4.234,0.549,6.333,0.924c1.596,0.285,3.194,0.652,4.726,1.173c2.989,1.014,4.885,3.079,5.341,6.267
			c0.793,5.55-1.042,10.342-6.368,12.623c-2.803,1.201-5.732,1.038-8.632,0.189c-1.076-0.315-2.152-0.651-3.251-0.865
			c-1.339-0.26-2.581-0.092-3.541,1.079C385.994,324.612,385.492,324.638,384.966,324.83z"/>
		<path fill="#999999" d="M376.971,292.767c0,10.073,0,19.999,0,30.063c1.054,0,1.991-0.048,2.919,0.022
			c0.415,0.032,1.157,0.296,1.16,0.465c0.016,0.903-0.769,0.549-1.22,0.553c-4.102,0.031-8.204,0.018-12.306,0.018
			c-1.198,0-2.396,0.018-3.594-0.011c-0.742-0.018-0.741-0.05-0.655-1.045c1.275,0,2.565,0,3.933,0c0-9.359,0-18.597,0-27.983
			c-1.298,0-2.616,0-3.992,0c0-0.456,0-0.765,0-1.167C367.782,293.518,372.365,294.03,376.971,292.767z"/>
		<path fill="#999999" d="M470.773,319.555c0-3.103,2.312-5.429,5.4-5.434c2.962-0.004,5.326,2.383,5.36,5.413
			c0.035,3.037-2.297,5.359-5.364,5.342C473.108,324.858,470.773,322.556,470.773,319.555z"/>
		<path fill="#999999" d="M366.972,280.404c0.002-3.14,2.185-5.301,5.343-5.29c2.949,0.011,5.307,2.388,5.288,5.33
			c-0.02,2.944-2.501,5.444-5.391,5.43C369.212,285.859,366.97,283.518,366.972,280.404z"/>
	</g>
</g>
</svg>
