<?xml version="1.0" encoding="utf-8"?>
<!-- Generator: Adobe Illustrator 19.0.0, SVG Export Plug-In . SVG Version: 6.00 Build 0)  -->
<svg version="1.1" id="Layer_1" xmlns="http://www.w3.org/2000/svg" xmlns:xlink="http://www.w3.org/1999/xlink" x="0px" y="0px"
	 viewBox="0 0 600 600" enable-background="new 0 0 600 600" xml:space="preserve">
<g>
	<path fill="#999999" d="M198.983,329.886v-12.88c-8.537,0-23.497,0-23.497,0C180.372,324.444,189.086,329.316,198.983,329.886
		L198.983,329.886L198.983,329.886z"/>
	<path fill="#999999" d="M226.277,317.006H202.78c-0.087,0.173,0,12.88,0,12.88C212.586,329.366,221.274,324.315,226.277,317.006
		L226.277,317.006L226.277,317.006z"/>
	<path fill="#999999" d="M202.78,269.952v12.68c-0.087,0.027,23.497,0,23.497,0C221.21,275.507,212.677,270.513,202.78,269.952
		L202.78,269.952L202.78,269.952z"/>
	<path fill="#999999" d="M175.486,282.632h23.497c-0.094,0.027,0-12.68,0-12.68C188.997,270.661,180.489,275.436,175.486,282.632
		L175.486,282.632L175.486,282.632z"/>
	<path fill="#999999" d="M198.983,313.857v-12.039c-0.094,0.131-28.069,0-28.069,0c0.073,4.268,1.113,8.324,2.537,12.039
		C173.27,314.066,198.983,313.857,198.983,313.857L198.983,313.857L198.983,313.857z"/>
	<path fill="#999999" d="M230.849,301.817H202.78c-0.087,0.131,0,12.039,0,12.039c-0.087,0.209,25.532,0,25.532,0
		C229.581,310.224,230.621,306.083,230.849,301.817L230.849,301.817L230.849,301.817z"/>
	<path fill="#999999" d="M202.78,285.695v12.317c-0.087,0.125,28.069,0,28.069,0c-0.254-4.108-1.113-8.515-2.537-12.317
		C228.313,285.739,202.78,285.695,202.78,285.695L202.78,285.695L202.78,285.695z"/>
	<path fill="#999999" d="M170.914,298.011h28.069c-0.094,0.125,0-12.317,0-12.317c-0.094,0.045-25.532,0-25.532,0
		C172.002,289.67,171.143,293.648,170.914,298.011L170.914,298.011L170.914,298.011z"/>
	<path fill="#333333" d="M60,329.18v-2.432h4.696L66,326.504c1.739-0.38,2.696-1.248,2.87-2.605v-0.57v-0.489v-1.629V277.16v-0.489
		v-0.57c-0.176-1.357-1.113-2.225-2.811-2.605l-1.228-0.245H60v-2.432h52.702l1.292,17.427h-3.014l-0.258-2.918
		c-0.689-3.35-2.138-5.917-4.349-7.7c-2.21-1.783-4.32-2.959-6.329-3.526c-2.009-0.567-4.679-0.851-8.009-0.851h-6.417
		c-0.976,0-1.665,0.189-2.067,0.566c-0.402,0.377-0.603,1.05-0.603,2.019v20.516h2.074c7.827,0,12.059-3.188,12.697-9.564v-2.026
		h3.493v25.613h-3.579l0.086-2.27c0-6.214-4.277-9.321-12.831-9.321h-1.939v24.713c0,2.167,1.062,3.251,3.186,3.251h5.986
		c5.339,0,9.616-1.121,12.831-3.364c3.215-2.242,5.081-4.566,5.597-6.971c0.517-2.405,0.818-3.85,0.904-4.336
		c0.086-0.486,0.129-1.081,0.129-1.783h2.928l-1.55,18.886H60L60,329.18z"/>
	<path fill="#333333" d="M113.795,273.495v-2.675h28.778v2.675h-4.307l-1.196,0.243c-1.542,0.378-2.393,1.243-2.552,2.594v0.567
		v0.567v45.877c0,2.27,1.037,3.404,3.111,3.404h5.198c4.094,0,7.524-1.459,10.289-4.377c2.765-2.918,4.706-7.376,5.822-13.374
		l0.399-2.675h2.791l-1.199,22.857h-47.133v-2.432h4.349l1.208-0.248c1.611-0.386,2.497-1.269,2.658-2.648v-0.496v-0.579v-1.783
		v-43.608v-0.405v-0.648c-0.215-1.351-1.101-2.216-2.658-2.594l-0.966-0.243H113.795L113.795,273.495z"/>
	<path fill="#333333" d="M233.826,329.18v-2.432h4.401l1.223-0.248c1.902-0.386,2.852-1.489,2.852-3.309v-0.414v-1.783v-43.608
		v-0.486v-0.567c-0.168-1.351-1.063-2.216-2.686-2.594l-1.258-0.243h-4.532v-2.675h25.608l11.228,37.709l12.322-37.709h24.19v2.675
		h-4.359l-1.291,0.243c-1.668,0.378-2.583,1.243-2.744,2.594v0.405v0.729v45.31v0.496v0.579c0.163,1.38,1.087,2.262,2.771,2.648
		l0.978,0.248h4.645v2.432h-29.089v-2.432h4.444l1.235-0.243c1.756-0.432,2.633-1.324,2.633-2.675v-0.243v-0.811l0.017-47.459
		l-16.893,53.862h-6.834l-16.882-54.388v47.985v0.567v0.486c0.165,1.405,1.07,2.297,2.716,2.675l0.987,0.243h4.691v2.432H233.826
		L233.826,329.18z"/>
	<path fill="#333333" d="M309.603,273.252v-2.432h28.33v2.432h-3.72l-1.033,0.243c-1.332,0.379-2.09,1.272-2.273,2.68v0.567v0.488
		v35.475c0,4.114,0.885,7.029,2.135,9.093c0.55,0.908,2.259,1.697,3.936,2.268c1.614,0.549,2.624,0.602,4.329,0.613
		c0.77,0.005,1.206-0.022,1.972-0.107c1.17-0.129,1.847-0.206,2.962-0.586c2.215-0.756,3.471-1.29,4.963-3.374
		c1.492-2.084,2.166-4.388,2.166-8.718V277.23l1.054-0.407l-1.054-0.648c-0.141-0.974-0.399-1.624-0.773-1.948
		c-0.375-0.325-0.843-0.568-1.405-0.731l-0.773-0.243h-4.006v-2.432h18.206v2.432h-3.755l-1.113,0.243
		c-1.437,0.378-2.226,1.27-2.365,2.675v0.486v0.567v34.286c0,5.836-1.056,10.132-3.169,12.888c-2.112,2.756-4.73,4.391-7.853,4.904
		c-3.123,0.513-10.655,0.77-12.032,0.77c-0.551,0-1.102,0-1.653,0c-0.505-0.108-2.147-0.324-4.925-0.649
		c-2.778-0.325-5.339-1.786-7.681-4.383c-2.342-2.598-3.513-6.385-3.513-11.364v-36.528v-0.648v-0.407
		c-0.138-1.299-0.873-2.191-2.204-2.679l-0.827-0.162h-0.206H309.603L309.603,273.252z"/>
	<path fill="#333333" d="M366.771,329.18v-2.432h4.45l1.236-0.243c1.648-0.378,2.582-1.27,2.802-2.675v-0.61v-0.524v-1.621v-43.608
		v-0.486c-0.22-1.783-1.154-2.864-2.802-3.242l-0.907-0.243h-4.78v-2.675h20.506l25.23,41.917v-35.27v-0.567v-0.567
		c-0.222-1.351-1.138-2.216-2.746-2.594l-0.998-0.243h-4.744v-2.675h20.272v2.675h-4.532l-1.154,0.243
		c-1.758,0.432-2.637,1.297-2.637,2.594v1.054v51.794h-9.409l-27.757-44.768v38.283v0.698v0.437c0,1.334,0.916,2.224,2.747,2.668
		l1.082,0.25h4.742v2.432H366.771L366.771,329.18z"/>
	<path fill-rule="evenodd" clip-rule="evenodd" fill="#333333" d="M425.44,329.18v-2.432h4.672l1.297-0.243
		c1.73-0.378,2.682-1.27,2.855-2.675v-0.486v-0.567v-4.377v-41.162v-0.489v-0.569c-0.231-1.356-1.154-2.251-2.768-2.685h-1.039
		h-4.931v-2.675h29.383c7.082,0,13.007,1.621,17.776,4.863c4.769,3.242,7.91,7.133,9.423,11.672c1.513,4.539,2.27,8.7,2.27,12.482
		c0,8.159-2.313,14.82-6.939,19.98c-4.626,5.16-10.737,8.2-18.333,9.119l-3.855,0.243H425.44L425.44,329.18z M447.699,323.031
		c0,1.455,0.243,2.438,0.728,2.95c0.486,0.512,1.385,0.768,2.699,0.768h4.042c5.368,0,8.415-1.899,11.357-5.697
		c2.941-3.798,4.412-9.818,4.412-18.061v-5.899c0-1.724-0.1-3.489-0.3-5.293c-0.2-1.805-0.699-4.189-1.499-7.152
		c-0.8-2.963-2.07-5.374-3.812-7.232c-1.742-1.858-3.224-2.665-5.697-3.475c-1.329-0.435-2.49-0.687-3.518-0.687h-5.069
		c-1.314,0-2.199,0.216-2.656,0.647c-0.457,0.431-0.685,1.32-0.685,2.667V323.031L447.699,323.031z"/>
	<path fill-rule="evenodd" clip-rule="evenodd" fill="#333333" d="M488.731,300c0-0.865,0-1.608,0-2.229
		c0-0.621,0.316-3.256,0.947-7.903c0.631-4.647,3.208-9.132,7.73-13.455c4.522-4.323,10.175-6.484,16.958-6.484
		c6.731,0,12.357,2.161,16.879,6.484c4.522,4.323,7.099,8.889,7.73,13.698c0.631,4.809,0.959,7.498,0.986,8.065
		c0.026,0.567,0.039,1.175,0.039,1.824c0,0.648-0.013,1.27-0.039,1.864c-0.026,0.594-0.355,3.283-0.986,8.065
		c-0.631,4.782-3.181,9.335-7.651,13.658c-4.469,4.323-10.122,6.484-16.958,6.484c-6.783,0-12.436-2.161-16.958-6.484
		c-4.522-4.323-7.073-8.632-7.651-12.928c-0.578-4.296-0.894-6.944-0.947-7.943C488.757,301.716,488.731,300.811,488.731,300
		L488.731,300z M502.838,300.442v4.066c0,1.967,0.021,3.282,0.062,3.947c0.042,0.664,0.333,2.817,0.874,6.458
		c0.541,3.641,1.675,6.564,3.401,8.77c1.726,2.206,4.087,3.309,7.083,3.309c2.912,0,5.252-1.116,7.02-3.349
		c1.768-2.232,2.881-4.85,3.339-7.853c0.458-3.003,0.738-5.182,0.842-6.538c0.104-1.355,0.156-2.937,0.156-4.744v-8.132
		c0-2.286-0.031-3.854-0.094-4.704c-0.062-0.851-0.312-2.684-0.749-5.501c-0.437-2.817-1.248-5.289-2.434-7.415
		c-1.186-2.126-2.59-3.481-4.212-4.066c-1.623-0.585-2.32-0.855-3.526-0.855c-5.491,0-9.371,2.689-10.203,8.111
		c-0.832,5.421-1.3,8.664-1.404,9.727c-0.104,1.063-0.156,2.631-0.156,4.704V300.442L502.838,300.442z"/>
</g>
</svg>
