<?xml version="1.0" encoding="utf-8"?>
<!-- Generator: Adobe Illustrator 19.0.0, SVG Export Plug-In . SVG Version: 6.00 Build 0)  -->
<svg version="1.1" id="Layer_1" xmlns="http://www.w3.org/2000/svg" xmlns:xlink="http://www.w3.org/1999/xlink" x="0px" y="0px"
	 viewBox="0 0 600 600" enable-background="new 0 0 600 600" xml:space="preserve">
<g>
	<path fill="#333333" d="M60,349.743v-9.732h7.251c2.244,0,3.949-0.548,5.114-1.644c1.165-1.096,1.748-3.617,1.748-7.562v-51.16
		c0-2.806-0.539-4.735-1.618-5.787c-1.079-1.052-3.302-1.578-6.668-1.578H60v-9.732h85.454v34.721h-9.581
		c-0.518-4.472-1.079-8.286-1.683-11.442c-0.604-3.156-1.597-5.743-2.978-7.759c-1.381-2.017-3.345-3.485-5.891-4.406
		c-2.546-0.921-5.978-1.381-10.293-1.381H92.239v27.356h6.862c3.884,0,6.733-1.096,8.545-3.288c1.813-2.192,2.719-5.962,2.719-11.31
		v-1.71h9.581v43.927h-9.581v-3.156c0-5.348-0.906-9.141-2.719-11.376c-1.813-2.236-4.661-3.354-8.545-3.354h-6.862v30.644h25.895
		c2.935,0,5.459-0.482,7.574-1.447c2.115-0.964,3.884-2.542,5.308-4.734c1.424-2.192,2.525-4.998,3.302-8.417
		c0.777-3.42,1.295-7.584,1.554-12.494h9.581v36.825H60L60,349.743z"/>
	<path fill="#333333" d="M149.154,349.743v-9.732h8.417c1.841,0,3.332-0.395,4.472-1.184c1.14-0.789,1.71-2.324,1.71-4.603v-56.289
		c0-2.017-0.504-3.463-1.512-4.34c-1.008-0.877-2.828-1.315-5.458-1.315h-7.628v-9.732h48.136v9.732h-7.365
		c-2.893,0-4.91,0.417-6.05,1.25c-1.14,0.833-1.71,2.389-1.71,4.669v61.945h21.438c3.419,0,6.225-0.504,8.417-1.512
		c2.192-1.008,3.946-2.608,5.261-4.8c1.315-2.192,2.302-5.064,2.959-8.614c0.658-3.551,1.118-7.869,1.381-12.954h9.732v37.482
		H149.154L149.154,349.743z"/>
	<path fill-rule="evenodd" clip-rule="evenodd" fill="#333333" d="M289.805,300.555h11.968c6.225,0,10.938-1.052,14.138-3.156
		c3.2-2.104,4.8-5.699,4.8-10.784c0-5.085-1.447-8.746-4.34-10.982c-2.893-2.236-7.76-3.354-14.599-3.354h-11.968V300.555
		L289.805,300.555z M257.32,349.743v-9.732h8.417c1.491,0,2.806-0.307,3.946-0.921c1.14-0.614,1.71-1.798,1.71-3.551v-58.789
		c0-1.753-0.57-2.937-1.71-3.551c-1.14-0.614-2.455-0.921-3.946-0.921h-8.417v-9.732h51.556c9.908,0,17.558,2.126,22.95,6.378
		c5.392,4.253,8.088,10.105,8.088,17.558c0,4.033-0.701,7.54-2.104,10.521c-1.403,2.981-3.397,5.458-5.984,7.431
		c-2.587,1.973-5.699,3.441-9.338,4.406c-3.639,0.965-7.65,1.447-12.034,1.447h-20.649v25.252c0,1.753,0.68,2.937,2.039,3.551
		c1.359,0.614,2.784,0.921,4.274,0.921h8.417v9.732H257.32L257.32,349.743z"/>
	<path fill-rule="evenodd" clip-rule="evenodd" fill="#333333" d="M380.079,311.998l-11.442-31.696h-0.263l-10.522,31.696H380.079
		L380.079,311.998z M322.605,349.743v-9.732c3.507,0,6.401-0.416,8.68-1.249c2.279-0.833,3.989-2.784,5.129-5.853l25.12-70.362
		h18.413l26.304,70.362c1.227,3.069,2.959,5.02,5.195,5.853c2.236,0.833,5.107,1.249,8.615,1.249v9.732h-45.769v-9.732h10.39
		c1.491,0,2.543-0.154,3.156-0.46c0.614-0.307,0.921-0.811,0.921-1.512c0-0.614-0.044-1.184-0.132-1.71
		c-0.087-0.526-0.219-1.008-0.394-1.447l-4.34-13.152h-29.855l-4.34,13.152c-0.175,0.438-0.307,0.855-0.395,1.25
		c-0.088,0.395-0.131,0.899-0.131,1.513c0,0.964,0.395,1.6,1.184,1.907c0.789,0.307,1.798,0.46,3.025,0.46h10.259v9.732H322.605
		L322.605,349.743z"/>
	<path fill="#333333" d="M411.037,349.743v-9.732h6.576c2.718,0,4.647-0.351,5.787-1.052c1.14-0.702,1.71-1.929,1.71-3.683v-57.079
		c0-1.666-0.482-3.069-1.447-4.208c-0.964-1.14-2.718-1.71-5.261-1.71h-7.365v-9.732h46.558v9.732h-5.787
		c-2.104,0-4.011,0.417-5.721,1.25c-1.71,0.833-2.565,2.521-2.565,5.064v54.974c0,4.296,2.148,6.445,6.444,6.445h7.628v9.732
		H411.037L411.037,349.743z"/>
	<path fill="#333333" d="M527.506,262.547h7.628v33.142h-9.47c-0.789-3.595-1.907-6.905-3.354-9.93
		c-1.447-3.025-3.288-5.611-5.524-7.759c-2.236-2.148-4.844-3.836-7.826-5.063s-6.445-1.841-10.39-1.841
		c-6.138,0-10.544,0.877-13.218,2.631c-2.675,1.754-4.011,4.822-4.011,9.206c0,2.455,0.833,4.428,2.499,5.918
		c1.666,1.491,3.88,2.74,6.642,3.748c2.762,1.008,5.896,1.863,9.404,2.565c3.507,0.701,7.102,1.469,10.785,2.302
		c3.682,0.833,7.277,1.863,10.784,3.091c3.507,1.228,6.642,2.85,9.404,4.866c2.762,2.017,4.975,4.581,6.642,7.694
		c1.666,3.113,2.499,6.949,2.499,11.508c0,5.261-0.943,9.645-2.828,13.152c-1.885,3.507-4.428,6.357-7.628,8.549
		c-3.2,2.192-6.904,3.748-11.113,4.669c-4.209,0.921-8.592,1.381-13.152,1.381c-4.998,0-9.842-0.964-14.533-2.893
		c-4.691-1.929-8.965-4.428-12.823-7.497l-2.893,7.76h-8.943v-35.641h9.733c0.964,8.855,4.077,15.585,9.338,20.188
		c5.261,4.603,12.582,6.905,21.964,6.905c5.787,0,10.083-1.162,12.889-3.485c2.805-2.324,4.208-5.064,4.208-8.22
		c0-2.806-0.833-5.063-2.499-6.773c-1.666-1.71-3.88-3.091-6.642-4.143c-2.762-1.052-5.896-1.951-9.403-2.696
		c-3.507-0.745-7.102-1.512-10.785-2.301s-7.277-1.775-10.785-2.959c-3.507-1.184-6.642-2.784-9.403-4.8
		c-2.762-2.017-4.976-4.581-6.642-7.694c-1.666-3.112-2.499-7.036-2.499-11.771c0-4.647,0.943-8.636,2.828-11.968
		c1.885-3.332,4.384-6.072,7.496-8.22c3.113-2.148,6.62-3.726,10.522-4.734c3.902-1.008,7.826-1.513,11.771-1.513
		c4.998,0,9.579,0.965,13.744,2.893c4.165,1.929,7.913,4.033,11.245,6.313L527.506,262.547L527.506,262.547z"/>
	<polygon fill="#999999" points="457.472,247.627 457.472,257.429 411.073,257.429 457.472,247.627 	"/>
</g>
</svg>
