<?xml version="1.0" encoding="utf-8"?>
<!-- Generator: Adobe Illustrator 19.0.0, SVG Export Plug-In . SVG Version: 6.00 Build 0)  -->
<svg version="1.1" id="Layer_1" xmlns="http://www.w3.org/2000/svg" xmlns:xlink="http://www.w3.org/1999/xlink" x="0px" y="0px"
	 viewBox="0 0 600 600" enable-background="new 0 0 600 600" xml:space="preserve">
<g>
	<path fill="#333333" d="M145.905,249.067c6.66,5.15,14.347,7.726,23.058,7.726c10.557,0,18.766-2.498,24.63-8.605
		c3.77-3.841,5.885-6.794,6.345-10.794h-17.475c-1.018,2-2.193,2.729-3.523,3.765c-2.437,1.92-5.605,2.603-9.504,2.603
		c-3.677,0-6.823-0.665-9.437-2.24c-4.299-2.535-6.582-6.128-6.847-13.128h47.681c0.084-6-0.104-9.84-0.564-12.724
		c-0.797-4.925-2.535-9.384-5.216-13.114c-2.975-4.232-6.747-7.394-11.314-9.357c-4.567-1.96-9.699-2.975-15.396-2.975
		c-9.593,0-17.397,2.886-23.409,8.691c-6.012,5.805-9.019,14.139-9.019,25.018C135.915,235.543,139.245,243.915,145.905,249.067z
		 M158.133,206.996c2.417-2.391,5.823-3.427,10.217-3.427c4.039,0,7.424,0.887,10.152,3.144c2.73,2.257,4.248,6.68,4.559,9.68
		h-29.489C154.194,213.394,155.713,209.387,158.133,206.996z"/>
	<path fill="#333333" d="M231.346,256.043c3.354,0,6.278-0.422,8.775-1.268c2.495-0.844,5.081-2.419,7.756-4.723
		c0.878-0.729,1.962-1.575,2.601-2.535s-0.478-1.537,1.522-1.73v10.606h15v-64h-17v33.633c0,4.034-0.244,7.28-1.359,9.737
		c-2.151,4.532-5.979,6.798-11.795,6.798c-4.543,0-7.783-1.593-9.338-4.781c-0.877-1.806-1.509-4.494-1.509-8.066v-37.321h-17
		v37.321c0,7.182,0.942,12.616,2.819,16.304C215.173,252.702,221.683,256.043,231.346,256.043z"/>
	<path fill="#333333" d="M302,224.645c0-5.032,0.502-8.758,1.822-11.177c2.362-4.301,6.907-6.452,13.794-6.452
		c0.52,0,0.93,0.02,1.772,0.056c0.84,0.04,1.612,0.116,2.612,0.231V190.48c-1-0.038-1.023-0.067-1.241-0.087
		c-0.222-0.018-0.376-0.029-0.696-0.029c-5.127,0-9.621,1.288-12.824,3.861c-1.962,1.537-3.239,4.397-7.239,8.584v-10.415h-17v64h19
		V224.645z"/>
	<path fill="#333333" d="M361.917,256.792c11.252,0,19.639-3.272,25.166-9.813c5.525-6.543,8.287-14.42,8.287-23.631
		c0-9.057-2.762-16.904-8.287-23.544c-5.527-6.638-13.914-9.959-25.166-9.959c-11.252,0-19.639,3.321-25.164,9.959
		c-5.525,6.64-8.287,14.487-8.287,23.544c0,9.211,2.762,17.088,8.287,23.631C342.278,253.521,350.665,256.792,361.917,256.792z
		 M350.296,208.823c2.702-3.395,6.556-5.092,11.561-5.092s8.849,1.697,11.532,5.092c2.682,3.394,4.025,8.235,4.025,14.525
		s-1.342,11.143-4.025,14.556s-6.527,5.119-11.532,5.119s-8.859-1.706-11.561-5.119c-2.702-3.414-4.054-8.266-4.054-14.556
		S347.594,212.216,350.296,208.823z"/>
	<path fill="#333333" d="M423,246.652c2,2.652,4.208,4.668,6.101,6.051c3.466,2.497,8.088,3.745,13.328,3.745
		c8.22,0,15.075-2.899,20.294-8.7c5.218-5.798,7.895-14.231,7.895-25.292c0-10.486-2.636-18.437-7.975-23.853
		c-5.339-5.416-11.841-8.122-19.537-8.122c-5.279,0-10.093,1.402-13.921,4.205c-2.095,1.575-4.185,3.726-6.185,6.452v-8.744h-17v88
		h17V246.652z M425.3,213.295c2.346-5.647,6.653-8.469,12.923-8.469c5.218,0,8.989,1.862,11.315,5.589
		c2.326,3.726,3.49,8.007,3.49,12.847c0,5.878-1.266,10.583-3.794,14.116c-2.528,3.534-6.201,5.301-11.015,5.301
		c-3.317,0-6.191-0.866-8.617-2.593c-4.083-2.957-6.123-8.086-6.123-15.384C423.48,220.093,424.085,216.29,425.3,213.295z"/>
	<path fill="#333333" d="M536.415,250.34c-0.562-0.767-0.039-2.228-0.159-4.379c-0.08-2.841,0.743-5.261,0.743-7.258v-28.807
		c0-7.567-3.19-12.714-8.779-15.442c-5.59-2.726-12.18-4.09-19.378-4.09c-11.059,0-18.96,3.363-23.503,8.893
		c-2.857,3.534-4.563,8.136-4.925,14.136h16.517c0.406-2,1.217-4.938,2.435-6.358c1.704-1.92,4.607-3.179,8.706-3.179
		c3.652,0,6.423,0.34,8.309,1.32c1.888,0.978,2.832,2.681,2.832,5.254c0,2.113-1.229,3.631-3.69,4.629
		c-1.373,0.576-3.652,1.038-6.836,1.422l-5.871,0.682c-6.654,0.807-11.697,2.147-15.125,4.029
		c-6.252,3.457-9.379,9.043-9.379,16.764c0,5.954,1.944,10.552,5.831,13.797c3.886,3.246,8.809,4.868,14.769,4.868
		c4.672,0,8.862-1.019,12.567-3.054c3.101-1.728,5.84-3.821,8.215-6.28c0.12,1.422,0.28,3.556,0.482,4.669
		c0.2,1.115,0.56,2.438,1.08,4.438H538v-4.153C538,251.742,536.975,251.109,536.415,250.34z M518,230.233
		c0,5.492-1.182,9.275-4.333,11.35c-3.15,2.073-6.308,3.11-10.047,3.11c-2.359,0-4.217-0.624-5.863-1.871
		c-1.648-1.248-2.399-3.275-2.399-6.078c0-3.15,1.384-5.474,4.081-6.973c1.593-0.882,4.234-1.631,7.885-2.246l3.906-0.691
		c1.948-0.347,2.907-0.72,4.023-1.124s2.747-0.931,2.747-1.584V230.233z"/>
	<path fill="#999999" d="M259.763,321.77c-5.279,0-9.422,1.402-13.25,4.205c-2.095,1.575-4.514,3.726-5.514,6.452v-9.034h-17v87h17
		v-32.452c1,2.652,3.528,4.668,5.422,6.051c3.466,2.497,7.748,3.745,12.988,3.745c8.22,0,14.905-2.899,20.125-8.7
		c5.218-5.798,7.81-14.231,7.81-25.292c0-10.486-2.678-18.437-8.018-23.853S267.46,321.77,259.763,321.77z M265.876,368.667
		c-2.528,3.534-6.202,5.301-11.015,5.301c-3.317,0-6.191-0.866-8.617-2.593c-4.083-2.957-6.123-8.086-6.123-15.384
		c0-4.608,0.606-8.411,1.82-11.406c2.346-5.647,6.653-8.469,12.923-8.469c5.218,0,8.989,1.862,11.315,5.589
		c2.326,3.726,3.49,8.007,3.49,12.847C269.669,360.428,268.404,365.133,265.876,368.667z"/>
	<path fill="#999999" d="M334.954,321.654c-5.127,0-9.567,1.288-12.77,3.861c-1.962,1.537-5.185,4.397-7.185,8.584v-10.705h-17v63
		h19v-30.459c0-5.032,0.39-8.758,1.71-11.177c2.362-4.301,6.851-6.452,13.738-6.452c0.52,0,1.014,0.02,1.856,0.056
		c0.84,0.04,0.696,0.116,2.696,0.231V321.77c-2-0.038-1.135-0.067-1.353-0.087C335.425,321.665,335.275,321.654,334.954,321.654z"/>
	<path fill="#999999" d="M401.238,333.715c-2.975-4.232-6.747-7.329-11.314-9.291c-4.567-1.96-9.699-2.943-15.396-2.943
		c-9.593,0-17.397,2.903-23.409,8.708c-6.012,5.805-9.019,14.147-9.019,25.026c0,11.61,3.33,19.99,9.99,25.142
		c6.66,5.15,14.347,7.726,23.058,7.726c10.557,0,18.766-3.143,24.63-9.25c3.77-3.841,5.885-7.439,6.345-11.439h-17.475
		c-1.018,2-2.193,3.374-3.523,4.41c-2.437,1.92-5.605,2.925-9.504,2.925c-3.677,0-6.823-0.149-9.437-1.724
		c-4.299-2.535-6.582-7.612-6.847-12.612h47.681c0.084-6-0.104-10.195-0.564-13.079
		C405.657,342.389,403.918,337.445,401.238,333.715z M359.757,349.394c0.622-4,2.141-7.861,4.561-10.253
		c2.417-2.391,5.823-3.854,10.217-3.854c4.039,0,7.424,1.528,10.152,3.785c2.73,2.257,4.248,6.322,4.559,10.322H359.757z"/>
	<path fill="#999999" d="M451.088,348.156c-10.228-2.151-16.186-3.668-17.87-4.552c-1.688-0.844-2.532-2.208-2.532-4.09
		c0-1.499,0.793-2.802,2.381-3.917c1.586-1.115,4.245-1.671,7.978-1.671c4.537,0,7.749,1.671,9.637,3.897
		c1.004,1.231,1.626,3.57,1.866,5.57h17.117c-0.762-7-3.723-13.645-8.879-16.775s-11.827-4.974-20.01-4.974
		c-8.628,0-15.318,1.945-20.074,6.111c-4.756,4.168-7.133,9.082-7.133,14.881c0,4.918,1.522,8.646,4.565,11.257
		c3.043,2.652,8.284,4.842,15.724,6.608c10.332,2.344,16.302,3.987,17.906,4.947c1.604,0.96,2.406,2.358,2.406,4.202
		c0,1.92-0.995,3.359-2.986,4.319s-4.678,1.439-8.057,1.439c-5.754,0-9.697-1.349-11.828-3.539
		c-1.208-1.229-1.991-2.477-2.353-6.477h-17.357c0,8,2.457,12.018,7.371,16.185c4.916,4.166,12.529,6.377,22.838,6.377
		c10.11,0,17.582-1.904,22.416-5.842c4.836-3.937,7.253-8.985,7.253-15.207c0-4.725-1.682-8.646-5.045-11.796
		C463.018,352,457.908,349.693,451.088,348.156z"/>
	<path fill="#999999" d="M519.496,348.156c-10.228-2.151-16.186-3.668-17.87-4.552c-1.688-0.844-2.532-2.208-2.532-4.09
		c0-1.499,0.793-2.802,2.381-3.917c1.586-1.115,4.245-1.671,7.978-1.671c4.537,0,7.749,1.671,9.637,3.897
		c1.004,1.231,1.626,3.57,1.866,5.57h17.117c-0.762-7-3.723-13.645-8.879-16.775c-5.156-3.13-11.826-4.974-20.01-4.974
		c-8.628,0-15.318,1.945-20.074,6.111c-4.756,4.168-7.133,9.082-7.133,14.881c0,4.918,1.522,8.646,4.565,11.257
		c3.043,2.652,8.284,4.842,15.724,6.608c10.332,2.344,16.302,3.987,17.906,4.947c1.604,0.96,2.406,2.358,2.406,4.202
		c0,1.92-0.995,3.359-2.986,4.319s-4.677,1.439-8.057,1.439c-5.754,0-9.697-1.349-11.828-3.539
		c-1.208-1.229-1.991-2.477-2.353-6.477h-17.357c0,8,2.457,12.018,7.371,16.185c4.916,4.166,12.528,6.377,22.838,6.377
		c10.11,0,17.582-1.904,22.416-5.842c4.836-3.937,7.253-8.985,7.253-15.207c0-4.725-1.682-8.646-5.045-11.796
		C531.426,352,526.315,349.693,519.496,348.156z"/>
	<rect x="60" y="289.394" fill="#333333" width="478" height="11"/>
</g>
</svg>
