<?xml version="1.0" encoding="utf-8"?>
<!-- Generator: Adobe Illustrator 19.0.0, SVG Export Plug-In . SVG Version: 6.00 Build 0)  -->
<svg version="1.1" id="Layer_1" xmlns="http://www.w3.org/2000/svg" xmlns:xlink="http://www.w3.org/1999/xlink" x="0px" y="0px"
	 viewBox="0 0 600 600" enable-background="new 0 0 600 600" xml:space="preserve">
<g id="rBIwMR.tif">
	<g>
		<path fill="#333333" d="M414.537,332.045c-5.617,0-10.689,0-16.244,0c0-1.485,0.003-2.799,0-4.113
			c-0.038-13.153-0.03-26.306-0.164-39.458c-0.022-2.157-0.308-4.456-1.111-6.428c-1.362-3.344-4.787-4.798-8.462-4.134
			c-2.937,0.53-5.541,3.564-5.777,6.918c-0.156,2.212-0.154,4.438-0.156,6.658c-0.013,13.322-0.006,26.644-0.006,40.194
			c-2.641,1.023-5.373,0.416-8.027,0.52c-2.533,0.099-5.073,0.021-7.841,0.021c0-23.667,0-46.983,0-70.667
			c5.154-0.443,10.216-0.193,15.611-0.006c0.198,1.993,0.393,3.954,0.624,6.28c4.253-3.805,7.939-7.742,14.169-7.413
			c6.092,0.321,10.158,3.156,13.182,8.64c1.462-1.344,2.733-2.641,4.134-3.776c5.36-4.341,11.281-6.011,18.061-3.789
			c4.421,1.448,7.658,4.049,9.859,8.26c2.593,4.96,3.683,10.295,3.777,15.676c0.269,15.365,0.095,30.737,0.095,46.371
			c-2.641,0.806-5.36,0.321-8.022,0.406c-2.547,0.081-5.099,0.018-7.977,0.018c-0.108-1.492-0.281-2.791-0.283-4.091
			c-0.021-12.64-0.009-25.281-0.016-37.921c-0.001-1.708,0.094-3.433-0.11-5.12c-0.617-5.105-3.935-8.317-10.173-7.084
			c-2.614,0.516-4.726,3.528-5.048,6.981c-0.158,1.695-0.089,3.414-0.089,5.122c-0.006,12.128-0.003,24.256-0.003,36.384
			C414.537,328.189,414.537,329.885,414.537,332.045z"/>
		<path fill="#333333" d="M286.785,259.314c0.75,4.66,0.46,8.802,0.151,13.196c-2.772,0.144-5.109,0.264-7.886,0.408
			c7.162,14.431,5.464,27.34-6.13,38.957c5.001,2.789,8.681,6.619,10.809,11.795c2.03,4.941,3.282,9.965,1.949,15.349
			c-0.486,1.965-0.559,4.043-1.145,5.971c-2.493,8.2-8.344,12.882-16.291,15.407c-9.124,2.899-17.415,1.486-24.827-4.574
			c-1.419-1.16-2.526-2.702-3.825-4.12c1.317-4.843,2.59-9.522,3.919-14.41c2.118,2.371,3.829,4.684,5.935,6.554
			c3.521,3.125,7.545,4.794,12.521,4.021c4.693-0.729,7.5-3.526,8.626-7.652c1.367-5.008,1.283-10.173-1.933-14.695
			c-2.072-2.913-4.82-4.754-8.588-4.736c-3.753,0.019-7.541-0.244-11.131,2.714c-0.779-3.201-0.486-5.873-0.424-8.483
			c0.048-2.024-0.563-3.435-1.98-4.948c-5.542-5.914-8.611-12.849-8.54-21.161c0.053-6.198,0.374-12.278,3.567-17.758
			c4.312-7.401,10.408-11.969,19.411-11.857C269.322,259.396,277.674,259.314,286.785,259.314z M251.471,287.868
			c-0.338,3.506,0.556,6.791,2.237,9.796c2.229,3.984,7.144,5.357,10.476,2.998c2.586-1.831,4.336-4.301,4.8-7.542
			c0.216-1.509,0.742-3.029,0.656-4.516c-0.203-3.53-0.656-6.969-2.52-10.206c-2.904-5.042-10.911-5.372-13.636,0.634
			C252.205,281.851,251.164,284.696,251.471,287.868z"/>
		<path fill="#333333" d="M94.625,297.168c0.08-11.199,2.473-19.872,8.217-27.46c5.242-6.923,11.872-10.967,20.931-10.345
			c5.22,0.358,9.479,2.639,13.101,6.076c6.236,5.918,9.608,13.355,11.207,21.781c1.63,8.586,0.673,16.861-2.144,24.992
			c-1.742,5.027-4.391,9.542-8.208,13.339c-9.206,9.16-22.134,9.171-31.49,0.392c-5.809-5.45-8.809-12.375-10.448-19.949
			C95.043,302.534,94.85,298.953,94.625,297.168z M132.626,295.674c0-1.877,0.276-3.806-0.067-5.617
			c-0.467-2.469-1.023-5.061-2.216-7.228c-3.606-6.55-12.155-6.929-16.513-0.853c-0.979,1.365-1.83,2.925-2.31,4.525
			c-1.848,6.158-1.908,12.413-0.062,18.564c0.882,2.938,2.471,5.609,4.982,7.585c3.613,2.843,7.82,2.782,11.063-0.459
			c1.292-1.291,2.246-2.976,3.141-4.598C132.691,303.883,132.858,299.788,132.626,295.674z"/>
		<path fill="#333333" d="M234.558,295.709c-0.011,5.925-1.367,11.461-3.297,16.98c-1.972,5.64-5.177,10.292-9.599,14.212
			c-9.85,8.732-22.923,6.84-31.389-2.533c-6.279-6.952-9.031-15.338-9.661-24.631c-0.536-7.897,0.102-15.556,3.383-22.796
			c3.179-7.014,7.93-12.784,15.152-15.878c7.88-3.376,15.31-2.118,21.961,3.3c6.474,5.274,10.109,12.311,11.944,20.281
			C233.884,288.257,234.076,292.016,234.558,295.709z M218.957,295.74c-0.47-3.181-0.713-6.417-1.462-9.531
			c-1.259-5.233-6.165-8.766-11.236-8.378c-3.31,0.253-5.694,1.975-7.302,4.844c-3.819,6.815-3.565,14.05-1.965,21.321
			c0.5,2.271,1.529,4.55,2.811,6.499c3.046,4.631,10.237,6.215,14.577,0.176C217.592,306.202,218.779,301.191,218.957,295.74z"/>
		<path fill="#333333" d="M324.723,280.636c0-5.789,0-10.846,0-16.471c2.217-0.72,4.536-1.675,6.949-2.216
			c5.638-1.264,11.261-2.213,17.083-0.554c6.251,1.782,9.773,6.046,11.33,11.945c0.854,3.234,1.013,6.719,1.034,10.094
			c0.1,16.046,0.045,32.093,0.045,48.59c-5.317,0.543-10.515,0.157-15.991,0.264c-0.105-1.085-0.195-1.888-0.256-2.693
			c-0.051-0.665-0.068-1.332-0.103-2.042c-0.406,0-0.775-0.112-0.911,0.019c-0.735,0.707-1.383,1.504-2.114,2.216
			c-6.736,6.559-14.758,5.354-20.386-1.397c-2.437-2.923-3.755-6.453-4.527-10.149c-1.34-6.414-1.774-12.912,0.561-19.131
			c3.837-10.221,13.201-15.335,25.387-10.461c0.463,0.185,0.932,0.358,1.704,0.655c0.923-3.093,0.614-6.117,0.123-9.059
			c-0.421-2.525-3.041-4.158-6.209-4.353c-3.182-0.195-5.96,1.153-8.766,2.342C328.16,278.876,326.708,279.666,324.723,280.636z
			 M345.082,309.296c-0.073-1.186-0.055-2.386-0.236-3.555c-0.521-3.372-3.941-6.445-7.745-7.051c-2.51-0.4-6.161,1.653-7.401,4.406
			c-1.2,2.663-1.694,5.525-1.113,8.426c1.29,6.438,7.452,9.418,12.661,6.144C344.319,315.735,345.191,312.73,345.082,309.296z"/>
		<path fill="#333333" d="M478.502,289.303c1.799-1.425,1.54-3.017,1.404-4.517c-0.091-1.001-0.48-1.971-0.656-2.969
			c-0.757-4.301-3.598-6.591-7.883-5.824c-2.629,0.471-5.153,1.561-7.696,2.455c-1.228,0.432-2.389,1.054-3.865,1.717
			c-0.146-0.989-0.319-1.628-0.322-2.268c-0.024-4.585-0.013-9.169-0.013-13.921c7.81-2.649,15.351-4.77,23.497-2.595
			c5.142,1.373,8.872,4.217,10.583,9.264c0.913,2.694,1.81,5.563,1.837,8.362c0.168,17.225,0.088,34.453,0.079,51.679
			c0,0.321-0.137,0.643-0.288,1.304c-5.091,0.558-10.277,0.309-15.786,0.127c-0.084-1.679-0.157-3.151-0.262-5.259
			c-1.539,1.51-2.594,2.717-3.817,3.716c-5.797,4.736-11.553,4.704-17.013,0.036c-4.99-4.266-6.893-10.059-7.67-16.162
			c-0.843-6.617-0.316-13.098,3.204-19.207c4.889-8.482,14.742-10.034,22.705-6.943
			C477.167,288.543,477.744,288.911,478.502,289.303z M480.093,309.457c-0.445-1.878-0.658-3.764-1.344-5.458
			c-1.188-2.93-5.811-5.882-8.582-5.341c-3.37,0.657-5.533,2.682-6.676,6.176c-1.033,3.158-0.718,6.054,0.397,8.898
			c1.197,3.052,3.631,4.903,6.977,5.132c3.124,0.214,5.757-1.076,7.315-3.745C479.168,313.425,479.485,311.339,480.093,309.457z"/>
		<path fill="#333333" d="M60,331.656c0-31.2,0-62.232,0-93.502c13.558,0,26.947,0,40.534,0c0,5.601,0,11.017,0,16.759
			c-4.042,0.964-8.274,0.296-12.45,0.422c-4.07,0.122-8.147,0.027-12.489,0.027c0,8.063,0,15.818,0,23.914
			c5.142,1.118,10.275-0.021,15.511,0.701c0.695,2.83,0.253,5.717,0.334,8.562c0.077,2.72,0.017,5.443,0.017,8.454
			c-5.237,1.157-10.52-0.083-16.108,0.801c0,11.358,0,22.7,0,34.397c-5.026,0-9.601,0.016-14.175-0.026
			C60.736,332.159,60.302,331.793,60,331.656z"/>
		<path fill="#333333" d="M536.218,268.941c-3.015,4.068-5.631,7.599-8.24,11.119c-2.487-0.973-4.646-1.956-6.892-2.664
			c-3.314-1.045-5.603-0.037-6.725,2.723c-1.229,3.023-0.413,5.911,2.505,7.399c3.47,1.769,7.188,3.053,10.663,4.814
			c5.02,2.544,8.95,6.417,11.002,11.64c2.818,7.172,1.432,14.069-2.85,20.332c-2.427,3.549-5.606,6.501-9.506,8.311
			c-6.424,2.98-12.945,2.545-19.06-0.905c-2.768-1.562-5.126-3.849-7.948-6.021c2.453-4.267,4.703-8.182,6.842-11.904
			c3.049,1.571,5.726,2.942,8.395,4.328c2.601,1.351,5.093,0.173,7.345-0.732c3.227-1.297,3.945-7.25,1.166-9.68
			c-1.594-1.394-3.711-2.359-5.752-3.041c-5.302-1.771-9.66-4.798-13.519-8.802c-10.501-10.895-2.776-30.534,8.901-33.656
			c6.672-1.784,13.142-1.41,18.926,2.908C532.939,266.205,534.329,267.411,536.218,268.941z"/>
		<path fill="#333333" d="M153.78,241.018c5.608,0,10.48,0,15.714,0c0,7.14,0,14.079,0,21.484c3.489,0,6.651,0,10.012,0
			c0,5.538,0,10.606,0,16.189c-3.114,0-6.27,0-9.923,0c0,1.819,0,3.134,0,4.448c-0.001,7.857-0.022,15.715,0.005,23.572
			c0.018,5.29,0.675,6.052,5.834,7.242c0.986,0.228,1.944,0.58,3.146,0.945c0,5.521,0,11.092,0,17.057
			c-2.696,0.432-5.33,1.142-7.983,1.224c-6.62,0.204-11.867-3.298-14.322-9.455c-1.318-3.305-2.268-6.708-2.237-10.377
			c0.08-9.393-0.026-18.788-0.055-28.183c-0.006-1.868-0.001-3.735-0.001-5.918c-1.542-0.246-2.98-0.475-4.685-0.746
			c0-5.033,0-10.099,0-15.523c1.242-0.196,2.681-0.422,4.495-0.708C153.78,255.404,153.78,248.468,153.78,241.018z"/>
		<path fill="#333333" d="M292.185,261.639c5.305,0,10.198,0,15.402,0c0.152,2.547,0.3,5.032,0.448,7.505
			c1.42-1.872,2.676-3.714,4.126-5.389c1.462-1.688,3.285-2.89,5.863-3.123c1.947,2.941,0.826,6.234,1.007,9.321
			c0.178,3.025,0.039,6.069,0.039,9.208c-1.667,0.539-2.926,0.925-4.171,1.352c-4.722,1.621-6.965,4.395-7.047,9.388
			c-0.143,8.693-0.078,17.389-0.092,26.083c-0.008,5.255-0.002,10.51-0.002,16.031c-5.368,0-10.412,0-15.878,0
			c-0.331-4.7-0.094-9.431-0.139-14.148c-0.044-4.603-0.01-9.206-0.01-13.81c0-4.774,0-9.547,0-14.321
			c0-4.603-0.074-9.208,0.02-13.809C291.848,271.227,291.303,266.479,292.185,261.639z"/>
	</g>
</g>
</svg>
