<?xml version="1.0" encoding="utf-8"?>
<!-- Generator: Adobe Illustrator 19.0.0, SVG Export Plug-In . SVG Version: 6.00 Build 0)  -->
<svg version="1.1" id="Layer_1" xmlns="http://www.w3.org/2000/svg" xmlns:xlink="http://www.w3.org/1999/xlink" x="0px" y="0px"
	 viewBox="0 0 600 600" enable-background="new 0 0 600 600" xml:space="preserve">
<g>
	<path fill="#333333" d="M100.032,260.501c2.16,0.26,4.343,0.397,6.476,0.802c6.625,1.26,11.227,3.319,16.777,7.367
		c-2.077,2.362-4.143,4.716-6.213,7.065c-6.792,7.708-13.541,15.455-20.395,23.107c-4.629,5.168-9.343,10.264-14.156,15.259
		c-1.463,1.519-3.269,2.806-5.122,3.831c-4.14,2.289-8.142,0.787-10.8-3.073c-0.929-1.349-0.453-2.433,0.971-3.247
		c1.483-0.848,3.126-1.636,4.236-2.868c1.954-2.167,1.777-5.138-0.021-7.568c-1.743-2.355-5.102-3.515-7.817-2.401
		c-1.434,0.588-2.651,1.703-3.966,2.58c0-0.914,0-1.828,0-2.742c0.307-2.159,0.47-4.349,0.946-6.47
		c2.265-10.105,7.495-18.28,16.028-24.268c4.774-3.35,9.995-5.616,15.756-6.567c2.057-0.339,4.136-0.542,6.206-0.808
		C99.301,260.501,99.666,260.501,100.032,260.501z"/>
	<path fill="#999999" d="M65.964,320.368c4.238,3.383,8.892,5.897,14.126,7.332c8.054,2.209,14.983,0.345,20.698-5.737
		c4.032-4.29,7.961-8.677,11.923-13.033c5.866-6.449,11.723-12.906,17.578-19.365c1.38-1.522,2.744-3.058,4.098-4.603
		c0.659-0.752,1.131-0.825,1.567,0.219c2.53,6.058,3.391,12.348,2.733,18.867c-0.586,5.809-2.359,11.222-5.375,16.221
		c-4.826,8-11.638,13.704-20.421,16.774c-13.044,4.56-25.316,2.762-36.569-5.327C71.948,328.573,68.666,324.889,65.964,320.368z"/>
	<path fill="#333333" d="M232.416,317.235c-0.928,0-1.788,0-2.648,0c-4.935,0-9.87,0-14.806,0c-0.274,0-0.591,0.085-0.813-0.023
		c-0.377-0.182-0.694-0.487-1.037-0.741c0.331-0.258,0.641-0.699,0.997-0.739c0.994-0.113,2.006-0.056,3.011-0.074
		c0.814-0.015,1.205-0.345,1.21-1.252c0.046-8.68,0.116-17.359,0.22-26.038c0.013-1.103-0.405-1.468-1.454-1.383
		c-0.771,0.062-1.553-0.015-2.329,0.008c-0.661,0.019-1.158-0.02-1.128-0.92c0.029-0.859,0.56-0.785,1.121-0.789
		c4.661-0.027,9.322-0.107,13.982-0.07c2.999,0.023,6.011,0.074,8.99,0.379c2.263,0.232,4.314,1.265,5.813,3.051
		c3.265,3.89,1.749,9.072-3.184,10.95c-1.34,0.51-2.734,0.876-4.424,1.408c0.881,0.291,1.456,0.535,2.056,0.671
		c4.515,1.017,6.484,3.896,6.736,8.386c0.079,1.4,0.186,2.861,0.666,4.15c0.274,0.734,1.245,1.417,2.05,1.694
		c1.115,0.383,1.598-0.172,1.225-1.298c-0.345-1.043-0.177-1.855,0.74-2.348c0.854-0.459,1.736-0.219,2.315,0.574
		c0.614,0.842,0.717,1.811,0.041,2.659c-0.415,0.52-0.952,1.071-1.552,1.295c-3.726,1.396-7.412,1.341-10.904-0.724
		c-1.916-1.133-2.727-2.978-2.942-5.14c-0.135-1.359-0.278-2.722-0.524-4.064c-0.634-3.468-2.348-4.9-5.913-5.036
		c-0.182-0.007-0.366,0.001-0.548,0.001c-1.964,0.002-1.962,0.001-1.961,1.914c0.001,3.519,0.039,7.038-0.026,10.556
		c-0.019,1.046,0.391,1.401,1.336,1.393c0.868-0.007,1.737,0.028,2.604-0.01C232.326,315.633,232.667,316.072,232.416,317.235z
		 M227.42,293.402c0.003,0,0.005,0,0.008,0c0,1.825-0.045,3.653,0.037,5.475c0.017,0.381,0.508,1.059,0.777,1.058
		c1.539-0.008,3.132,0.036,4.602-0.342c2.651-0.683,3.49-2.806,3.622-5.33c0.298-5.692-2.517-7.926-7.779-7.421
		c-0.907,0.087-1.349,0.469-1.293,1.496C227.488,290.021,227.42,291.713,227.42,293.402z"/>
	<path fill="#999999" d="M440.476,284.119c10.781-0.001,18.046,4.556,20.792,11.318c3.009,7.411-0.181,16.147-7.19,20.057
		c-7.399,4.127-14.782,4.184-21.928-0.287c-8.703-5.446-10.332-16.312-4.106-23.98C431.964,286.399,437.076,284.164,440.476,284.119
		z M452.25,301.367c-0.133-0.024-0.266-0.048-0.399-0.072c0.031-3.397-0.199-6.765-1.431-9.969c-1.146-2.98-3.119-5.053-6.502-5.279
		c-3.07-0.205-5.443,1.051-6.922,3.75c-0.606,1.106-1.066,2.335-1.351,3.564c-1.147,4.957-1.21,9.965-0.242,14.951
		c0.518,2.669,1.398,5.29,3.751,6.945c4.228,2.974,9.628,1.086,11.242-4.139C451.365,307.977,451.655,304.625,452.25,301.367z"/>
	<path fill="#333333" d="M362.221,318.369c-7.352-0.349-13.289-3.182-16.969-9.858c-2.835-5.143-1.957-12.432,1.756-16.985
		c4.169-5.114,9.536-7.585,16.028-7.297c6.874,0.304,12.674,3.118,16.156,9.205c4.788,8.37,1.468,18.238-7.211,22.58
		C368.916,317.548,365.703,318.458,362.221,318.369z M353.536,300.727c0.329,2.96,0.47,5.38,0.894,7.75
		c0.489,2.736,1.431,5.385,3.913,6.964c3.838,2.442,9.337,1.553,11.25-4.083c0.638-1.882,1.084-3.882,1.254-5.859
		c0.408-4.738,0.48-9.487-1.178-14.064c-0.803-2.217-2.053-4.076-4.365-4.981c-4.526-1.771-8.903,0.494-10.299,5.645
		C354.202,295.061,353.954,298.175,353.536,300.727z"/>
	<path fill="#333333" d="M194.471,307.818c-1.488,0-2.849-0.013-4.21,0.006c-0.629,0.009-1.205-0.139-1.002-0.869
		c0.097-0.349,0.678-0.8,1.044-0.803c5.343-0.052,10.688-0.034,16.032-0.038c0.586,0,1.093,0.004,1.088,0.833
		c-0.005,0.778-0.418,0.896-1.053,0.878c-0.95-0.026-1.902-0.007-3.071-0.007c0,0.702-0.077,1.288,0.013,1.847
		c0.442,2.747-1.258,4.391-3.26,5.484c-7.989,4.362-16.108,4.484-24.117,0.035c-8.383-4.657-10.174-16.537-3.806-23.656
		c4.688-5.241,10.535-7.509,17.401-7.311c3.024,0.087,5.961,0.881,8.602,2.436c0.962,0.567,1.612,0.521,2.371-0.288
		c0.305-0.326,0.904-0.377,1.37-0.553c0.115,0.476,0.316,0.949,0.332,1.428c0.09,2.766,0.156,5.534,0.171,8.302
		c0.002,0.345-0.343,0.692-0.528,1.038c-0.363-0.254-0.942-0.436-1.053-0.773c-0.791-2.411-1.829-4.638-3.677-6.465
		c-4.426-4.375-13.001-4.952-16.516,2.855c-2.973,6.602-2.946,13.385,0.307,19.957c1.914,3.868,6.23,5.393,10.249,3.823
		c2.046-0.799,3.335-2.183,3.315-4.518C194.463,310.292,194.471,309.122,194.471,307.818z"/>
	<path fill="#333333" d="M304.051,287.001c-0.346-1.206-0.081-1.729,1.164-1.724c6.339,0.025,12.679-0.039,19.018,0.014
		c2.429,0.02,4.857,0.383,6.942,1.743c2.755,1.796,4.343,4.346,3.971,7.72c-0.421,3.819-2.894,6.027-6.314,7.34
		c-2.6,0.998-5.318,1.179-8.068,1.129c-0.997-0.018-1.994-0.003-3.083-0.003c-0.05,0.392-0.131,0.739-0.133,1.087
		c-0.021,3.288-0.007,6.577-0.051,9.865c-0.014,1.02,0.322,1.527,1.407,1.496c1.277-0.036,2.561-0.039,3.833,0.063
		c0.357,0.029,0.68,0.477,1.018,0.733c-0.352,0.255-0.702,0.73-1.055,0.733c-6.165,0.044-12.33,0.041-18.495,0
		c-0.314-0.002-0.624-0.437-0.936-0.671c0.326-0.276,0.63-0.749,0.984-0.79c1.038-0.12,2.096-0.068,3.146-0.085
		c0.778-0.013,1.119-0.368,1.121-1.188c0.023-8.813,0.065-17.626,0.121-26.439c0.005-0.773-0.293-1.059-1.054-1.033
		C306.449,287.03,305.307,287.001,304.051,287.001z M317.523,287.11c0,4.511-0.018,8.889,0.034,13.267
		c0.004,0.355,0.469,0.991,0.757,1.013c3.681,0.285,6.667-0.463,7.63-4.638c0.253-1.098,0.367-2.262,0.331-3.388
		c-0.111-3.452-1.725-5.648-4.678-6.215C320.375,286.914,319.071,287.11,317.523,287.11z"/>
	<path fill="#333333" d="M296.753,286.995c-1.768,0-3.398,0-5.364,0c0,1.88,0.007,3.645-0.001,5.409
		c-0.022,4.294,0.014,8.591-0.107,12.882c-0.051,1.809-0.342,3.629-0.698,5.409c-0.568,2.841-2.294,4.874-4.944,5.971
		c-5.86,2.424-11.754,2.306-17.525-0.271c-3.367-1.504-4.911-4.372-5.108-7.969c-0.153-2.778-0.245-5.561-0.273-8.343
		c-0.044-4.288-0.012-8.576-0.012-13.052c-1.984,0-3.599,0-5.297,0c0-0.666,0-1.142,0-1.753c0.762,0,1.436,0,2.111,0
		c5.483-0.001,10.965-0.006,16.448,0.004c0.588,0.001,1.351-0.258,1.356,0.82c0.005,1.032-0.7,0.877-1.326,0.883
		c-1.096,0.011-2.194,0.038-3.289,0.007c-0.78-0.022-1.176,0.206-1.162,1.079c0.115,6.985,0.166,13.972,0.332,20.956
		c0.027,1.155,0.405,2.342,0.818,3.44c0.906,2.411,3.018,3.235,5.318,3.445c1.567,0.143,3.211,0.035,4.755-0.282
		c3.082-0.633,5.216-3.015,5.384-6.449c0.346-7.062,0.419-14.138,0.618-21.207c0.02-0.71-0.264-0.991-0.961-0.976
		c-1.004,0.021-2.014-0.066-3.014,0.005c-1.289,0.092-1.5-0.492-1.144-1.642c4.244,0,8.478,0,12.947,0
		C296.651,285.795,296.696,286.327,296.753,286.995z"/>
	<path fill="#999999" d="M526.519,315.334c1.738,0.095,3.452,0.189,5.27,0.289c0,0.577,0,1.096,0,1.716c-6.687,0-13.366,0-20.104,0
		c0-0.56,0-1.048,0-1.698c1.775-0.1,3.527-0.199,5.418-0.305c0.027-0.531,0.07-1.014,0.072-1.496
		c0.007-2.694-0.09-5.393,0.035-8.082c0.088-1.911-0.366-3.516-1.45-5.107c-2.516-3.695-4.94-7.457-7.288-11.261
		c-1.035-1.677-2.259-2.639-4.303-2.315c-0.476,0.075-0.982-0.039-1.528-0.069c0-0.62,0-1.14,0-1.741c6.269,0,12.46,0,18.816,0
		c0.034,0.526,0.066,1.04,0.11,1.719c-1.394,0.074-2.692,0.142-4.328,0.228c2.584,4.366,5.07,8.565,7.731,13.061
		c2.496-4.427,4.855-8.61,7.354-13.041c-1.642-0.089-3.018-0.163-4.443-0.24c0-0.601,0-1.124,0-1.725c4.064,0,8.057,0,12.119,0
		c0,0.588,0,1.112,0,1.885c-1.116,0-2.209-0.085-3.278,0.038c-0.491,0.057-1.119,0.409-1.371,0.82
		c-2.865,4.666-5.676,9.365-8.478,14.069c-0.246,0.413-0.451,0.925-0.456,1.393c-0.034,3.744-0.017,7.489-0.009,11.234
		C526.409,314.878,526.467,315.051,526.519,315.334z"/>
	<path fill="#999999" d="M401.408,282.167c-1.902,0-3.712,0-5.589,0c0-0.683,0-1.213,0-1.832c6.842,0,13.621,0,20.488,0
		c0,0.571,0,1.092,0,1.816c-1.299,0-2.568,0.072-3.823-0.021c-1.129-0.084-1.373,0.377-1.364,1.415
		c0.061,7.077,0.094,14.155,0.076,21.233c-0.004,1.543-0.108,3.113-0.413,4.621c-0.611,3.023-2.515,5.095-5.25,6.428
		c-4.485,2.187-9.066,3.104-13.797,0.806c-1.701-0.826-2.816-2.15-2.792-4.189c0.017-1.433,0.828-2.807,2.066-3.274
		c1.322-0.498,2.633-0.446,3.71,0.568c1.131,1.065,1.212,2.362,0.659,3.773c-0.748,1.911-0.07,2.728,2.077,2.567
		c2.44-0.183,4.119-2.026,4.184-5.045c0.131-6.112,0.121-12.228,0.122-18.343c0-2.693-0.106-5.387-0.182-8.079
		C401.559,283.842,401.474,283.077,401.408,282.167z"/>
	<path fill="#999999" d="M489.292,285.275c0,0.574,0,1.096,0,1.812c-1.49,0-2.938,0.015-4.385-0.007
		c-0.672-0.01-1.049,0.208-0.987,0.943c0.023,0.272-0.006,0.548-0.006,0.822c0,8.675,0,17.349,0,26.257
		c3.987-0.13,7.967,0.505,11.781-0.993c2.765-1.086,3.457-3.552,3.845-6.165c0.113-0.763,0.218-1.527,0.323-2.27
		c2.016-0.321,2.058-0.266,1.893,1.689c-0.219,2.592-0.412,5.187-0.603,7.781c-0.139,1.893-0.522,2.296-2.455,2.288
		c-4.475-0.018-8.95-0.104-13.425-0.104c-4.795,0-9.589,0.068-14.384,0.105c-0.492,0.004-0.985,0-1.583,0c0-0.692,0-1.252,0-1.972
		c1.715,0,3.387,0,5.241,0c0-9.489,0-18.821,0-28.338c-1.75,0-3.46,0-5.324,0c0.051-0.716,0.088-1.238,0.131-1.849
		C476.022,285.275,482.615,285.275,489.292,285.275z"/>
</g>
</svg>
