<?xml version="1.0" encoding="utf-8"?>
<!-- Generator: Adobe Illustrator 19.0.0, SVG Export Plug-In . SVG Version: 6.00 Build 0)  -->
<svg version="1.1" id="Layer_1" xmlns="http://www.w3.org/2000/svg" xmlns:xlink="http://www.w3.org/1999/xlink" x="0px" y="0px"
	 viewBox="0 0 600 600" enable-background="new 0 0 600 600" xml:space="preserve">
<g>
	<polygon fill-rule="evenodd" clip-rule="evenodd" fill="#333333" points="118.603,347.857 98.3,290.542 98.3,337.362 
		105.56,337.362 105.56,366.541 60.116,366.541 60.116,337.362 67.428,337.362 67.428,262.541 60,262.541 60,233.516 
		103.358,233.459 119.292,278.577 135.42,233.459 177.932,233.516 177.932,262.541 170.661,262.541 170.661,337.362 
		177.932,337.362 177.932,366.541 132.48,366.541 132.48,337.362 139.79,337.362 139.79,290.542 118.603,347.857 	"/>
	<path fill-rule="evenodd" clip-rule="evenodd" fill="#333333" d="M251.909,233.465l16.874,103.898h5.334v29.125h-41.877v-29.125
		h5.373l-0.012-10.922h-19.42l-0.009,10.922h5.366v29.125h-41.855v-29.125h5.328l16.902-103.898H251.909L251.909,233.465z
		 M234.502,308.836l-6.689-41.144l-6.533,41.144H234.502L234.502,308.836z"/>
	<path fill-rule="evenodd" clip-rule="evenodd" fill="#333333" d="M413.503,262.624v25.953h30.264v-40.961l-14.085-14.151h-44.265
		l-14.101,14.129v104.814l14.101,14.079h44.311l14.079-14.079l0.016-40.898c-0.056,0-30.32,0-30.32,0l-0.013,25.927h-9.965v-74.813
		H413.503L413.503,262.624z"/>
	<path fill-rule="evenodd" clip-rule="evenodd" fill="#333333" d="M327.676,366.479V313.67l-9.763-0.016l-0.017,23.708h5.311v29.125
		h-45.325v-29.125h7.284v-74.816h-7.312v-29.082H346.3l14.027,14.018v41.986l-11.345,11.205l11.295,11.195v25.511h7.295v29.095
		L327.676,366.479L327.676,366.479z M317.794,262.547v30.597l9.918,0.015V262.57L317.794,262.547L317.794,262.547z"/>
	<path fill-rule="evenodd" clip-rule="evenodd" fill="#333333" d="M517.79,233.465l16.878,103.898H540v29.125h-41.886v-29.125h5.379
		V326.44h-19.408l-0.034,10.922h5.366v29.125H447.56v-29.125h5.339l16.903-103.898H517.79L517.79,233.465z M500.39,308.836
		l-6.703-41.144l-6.52,41.144H500.39L500.39,308.836z"/>
</g>
</svg>
