<?xml version="1.0" encoding="utf-8"?>
<!-- Generator: Adobe Illustrator 19.0.0, SVG Export Plug-In . SVG Version: 6.00 Build 0)  -->
<svg version="1.1" id="Layer_1" xmlns="http://www.w3.org/2000/svg" xmlns:xlink="http://www.w3.org/1999/xlink" x="0px" y="0px"
	 viewBox="0 0 600 600" enable-background="new 0 0 600 600" xml:space="preserve">
<path fill="#333333" d="M136.289,350.783c0,8.617-5.221,12.533-16.449,12.533c-11.487,0-16.708-4.179-16.708-12.533V247.912
	c0-9.136,4.442-13.056,14.357-13.056c9.144,0,12.273,2.088,14.365,9.923c0.519,1.565,1.305,2.347,2.084,2.347
	c0.786,0,1.305-0.259,3.137-2.088c6.526-6.263,17.494-10.182,28.722-10.182c6.786,0,10.182,3.656,10.182,10.705
	c0,16.449-3.137,22.456-11.228,22.456c-19.845,0-29.241,10.701-28.463,32.374V350.783z M188.253,211.359
	c0-8.877,5.221-13.056,16.449-13.056c11.487,0,16.708,4.179,16.708,13.056v18.799c0,3.916,1.305,5.221,5.221,5.221h8.877
	c8.877,0,13.052,4.961,13.052,15.666c0,10.442-4.175,15.403-13.052,15.403h-8.877c-3.656,0-5.221,1.568-5.221,5.225v39.164
	c0,17.754,5.74,26.367,17.494,26.367c2.87,0,5.74-0.259,13.571-1.042c0.786-0.263,1.572-0.263,2.618-0.263
	c5.74,0,8.35,2.874,8.35,9.659c0,12.796-11.228,19.845-31.065,19.845c-29.249,0-44.125-19.059-44.125-56.395V211.359z
	 M335.763,253.392c5.228-15.143,9.144-18.796,19.845-18.796c9.923,0,15.143,3.916,15.143,11.224c0,1.828-0.259,2.61-1.305,5.747
	l-34.721,93.73c-5.228,14.361-9.404,18.017-19.845,18.017c-10.442,0-14.624-3.656-19.845-18.017l-34.721-93.73
	c-1.046-2.61-1.313-3.919-1.313-5.747c0-7.308,5.228-11.224,15.143-11.224c10.709,0,14.365,3.652,19.586,18.796l17.494,50.391
	c0.786,2.091,1.824,3.137,3.656,3.137c1.565,0,2.87-1.046,3.397-3.137L335.763,253.392z M408.618,327.022
	c-3.137,0-4.442,1.309-4.442,3.919c0,25.845,16.975,41.774,44.911,41.774c9.923,0,16.708-1.569,28.982-6.526
	c4.183-1.569,6.007-2.091,7.831-2.091c4.442,0,7.579,3.916,7.579,9.923c0,15.666-21.41,27.676-49.872,27.676
	c-46.476,0-72.587-29.768-72.587-82.77c0-52.479,25.066-84.071,66.581-84.071c35.508,0,59.268,26.631,59.268,66.317
	c0,19.845-5.221,25.848-22.715,25.848H408.618z M460.834,300.655c3.137,0,4.183-1.305,4.183-4.702
	c0-24.02-10.449-37.076-29.249-37.076c-18.532,0-31.065,15.666-31.065,38.122c0,2.351,1.565,3.656,4.175,3.656H460.834z"/>
</svg>
