<?xml version="1.0" encoding="utf-8"?>
<!-- Generator: Adobe Illustrator 19.0.0, SVG Export Plug-In . SVG Version: 6.00 Build 0)  -->
<svg version="1.1" id="Layer_1" xmlns="http://www.w3.org/2000/svg" xmlns:xlink="http://www.w3.org/1999/xlink" x="0px" y="0px"
	 viewBox="0 0 600 600" enable-background="new 0 0 600 600" xml:space="preserve">
<g>
	<polygon fill="#999999" points="91,328.394 75,328.394 75,329.394 81,329.394 81,347.394 83,347.394 83,329.394 91,329.394 	"/>
	<path fill="#999999" d="M97.774,328.394l-8.581,19h2.111l2.444-6h9.911l2.444,6h2.11l-8.579-19H97.774z M94.552,339.394
		l4.137-9.357l4.165,9.357H94.552z"/>
	<polygon fill="#999999" points="126.906,328.394 124.489,328.394 113,339.043 113,328.394 112,328.394 112,347.394 113,347.394 
		113,341.764 117.037,338.221 125.406,347.394 127.906,347.394 118.77,337.06 	"/>
	<polygon fill="#999999" points="131,347.394 144,347.394 144,344.394 133,344.394 133,337.394 143,337.394 143,336.394 
		133,336.394 133,329.394 144,329.394 144,328.394 131,328.394 	"/>
	<path fill="#999999" d="M163.011,328.394l-8.581,19h2.111l2.444-6h9.911l2.444,6h2.11l-8.579-19H163.011z M159.789,339.394
		l4.137-9.357l4.165,9.357H159.789z"/>
	<polygon fill="#999999" points="207.303,328.394 201.944,344.414 196.586,328.394 194.864,328.394 189.478,344.442 
		184.118,328.394 182.064,328.394 188.534,347.394 190.449,347.394 195.724,331.817 200.973,347.394 203,347.394 203,346.791 
		209.358,328.394 	"/>
	<path fill="#999999" d="M217.083,328.394l-8.581,19h2.111l2.444-6h9.911l2.444,6h2.11l-8.579-19H217.083z M213.862,339.394
		l4.137-9.357l4.165,9.357H213.862z"/>
	<polygon fill="#999999" points="233,328.394 232,328.394 232,347.394 243,347.394 243,346.394 233,346.394 	"/>
	<polygon fill="#999999" points="262.268,328.394 259.851,328.394 250,339.043 250,328.394 246,328.394 246,347.394 250,347.394 
		250,341.764 253.217,338.221 260.768,347.394 263.267,347.394 254.132,337.06 	"/>
	<path fill="#999999" d="M282.792,327.437c-5.442,0-9.829,4.387-9.829,9.829c0,5.444,4.387,9.829,9.829,9.829
		c5.442,0,9.829-4.386,9.829-9.829C292.621,331.824,288.234,327.437,282.792,327.437z M282.765,345.263
		c-4.387,0-7.83-3.609-7.83-7.997s3.443-7.997,7.83-7.997c4.414,0,7.857,3.609,7.857,7.997S287.179,345.263,282.765,345.263z"/>
	<polygon fill="#999999" points="311,343.319 298.733,328.394 297,328.394 297,347.394 298,347.394 298,331.38 311.396,347.394 
		313,347.394 313,328.394 311,328.394 	"/>
	<polygon fill="#999999" points="323,329.394 329,329.394 329,347.394 331,347.394 331,329.394 339,329.394 339,328.394 
		323,328.394 	"/>
	<polygon fill="#999999" points="355,336.394 344,336.394 344,328.394 342,328.394 342,347.394 344,347.394 344,337.394 
		355,337.394 355,347.394 357,347.394 357,328.394 355,328.394 	"/>
	<polygon fill="#999999" points="362,347.394 375,347.394 375,344.394 365,344.394 365,337.394 375,337.394 375,336.394 
		365,336.394 365,329.394 375,329.394 375,328.394 362,328.394 	"/>
	<path fill="#999999" d="M393.825,329.361c3.166,0,4.831,2.032,5.276,4.032h1.943c-0.472-4-3.526-5.754-7.358-5.754
		c-3.998,0-6.692,2.05-6.692,5.299c0,2.555,1.75,4.247,5.22,4.886l3.277,0.61c2.444,0.445,3.554,1.623,3.554,3.207
		c0,2.249-1.916,4.069-4.943,4.069c-3.47,0-5.524-1.316-5.996-4.316h-1.945c0.445,3,3.332,6.086,7.859,6.086
		c4.219,0,7.024-2.455,7.024-5.897c0-2.694-1.888-4.365-5.247-5.005l-2.86-0.599c-2.499-0.445-3.86-1.407-3.86-3.129
		C389.076,330.656,390.964,329.361,393.825,329.361z"/>
	<polygon fill="#999999" points="407,328.394 405,328.394 405,347.394 418,347.394 418,346.394 407,346.394 	"/>
	<path fill="#999999" d="M429.151,327.437c-5.442,0-9.829,4.387-9.829,9.829c0,5.444,4.387,9.829,9.829,9.829
		s9.829-4.386,9.829-9.829C438.98,331.824,434.593,327.437,429.151,327.437z M429.124,345.263c-4.387,0-7.83-3.609-7.83-7.997
		s3.443-7.997,7.83-7.997c4.414,0,7.857,3.609,7.857,7.997S433.539,345.263,429.124,345.263z"/>
	<polygon fill="#999999" points="460.865,344.414 455.507,328.394 453.786,328.394 448.399,344.442 443.04,328.394 440.986,328.394 
		447.455,347.394 449.37,347.394 454.646,331.817 459.895,347.394 462,347.394 462,346.791 468.279,328.394 466.225,328.394 	"/>
	<path fill="#999999" d="M486.279,329.361c3.166,0,4.831,2.032,5.276,4.032h1.943c-0.472-4-3.526-5.754-7.358-5.754
		c-3.998,0-6.692,2.05-6.692,5.299c0,2.555,1.75,4.247,5.22,4.886l3.277,0.61c2.444,0.445,3.554,1.623,3.554,3.207
		c0,2.249-1.916,4.069-4.943,4.069c-3.47,0-5.524-1.316-5.996-4.316h-1.945c0.445,3,3.332,6.086,7.859,6.086
		c4.219,0,7.024-2.455,7.024-5.897c0-2.694-1.888-4.365-5.247-5.005l-2.86-0.599c-2.499-0.445-3.86-1.407-3.86-3.129
		C481.531,330.656,483.419,329.361,486.279,329.361z"/>
	<rect x="498" y="328.394" fill="#999999" width="1" height="19"/>
	<path fill="#999999" d="M511.663,328.394H506v19h5.663c5.858,0,9.942-4.002,9.942-9.639
		C521.604,332.313,517.521,328.394,511.663,328.394z M511.663,344.394H508v-15h3.663c4.637,0,7.914,3.002,7.914,7.362
		C519.577,341.309,516.3,344.394,511.663,344.394z"/>
	<polygon fill="#999999" points="525,347.394 538,347.394 538,344.394 529,344.394 529,337.394 538,337.394 538,336.394 
		529,336.394 529,329.394 538,329.394 538,328.394 525,328.394 	"/>
	<polygon fill="#333333" points="83,310.394 97,310.394 97,293.322 118.979,253.394 103.384,253.394 89.457,278.079 75.613,253.394 
		60.018,253.394 83,293.322 	"/>
	<path fill="#333333" d="M147.591,252.54c-17.096,0-30.023,13.01-30.023,29.523s12.927,29.522,30.023,29.522
		c17.18,0,30.107-13.009,30.107-29.522S164.77,252.54,147.591,252.54z M147.591,298.492c-9.173,0-15.762-7.506-15.762-16.429
		c0-8.924,6.589-16.43,15.762-16.43s15.762,7.506,15.762,16.43C163.353,290.986,156.764,298.492,147.591,298.492z"/>
	<path fill="#333333" d="M201,294.394h8.144l12.176,16h17.013l-14.595-19.169c6.755-3.419,10.841-9.825,10.841-17.748
		c0-12.259-9.424-20.083-23.434-20.083H186v57h15V294.394z M201,266.394h9.811c5.421,0,9.758,2.83,9.758,7.416
		c0,4.671-4.336,7.584-9.758,7.584H201V266.394z"/>
	<path fill="#333333" d="M300.803,282.063c0-16.513-12.927-29.523-30.107-29.523c-17.096,0-30.023,13.01-30.023,29.523
		s12.927,29.522,30.023,29.522C287.876,311.585,300.803,298.576,300.803,282.063z M270.697,298.492
		c-9.173,0-15.762-7.506-15.762-16.429c0-8.924,6.589-16.43,15.762-16.43c9.173,0,15.762,7.506,15.762,16.43
		C286.459,290.986,279.87,298.492,270.697,298.492z"/>
	<polygon fill="#333333" points="324,298.909 331.836,289.557 347.429,310.394 364.608,310.394 341.173,278.391 362.773,253.394 
		346.094,253.394 324,279.478 324,253.394 310,253.394 310,310.394 324,310.394 	"/>
	<path fill="#333333" d="M391.884,311.585c17.18,0,30.107-13.009,30.107-29.522s-12.927-29.523-30.107-29.523
		c-17.096,0-30.023,13.01-30.023,29.523S374.789,311.585,391.884,311.585z M391.884,265.634c9.173,0,15.762,7.506,15.762,16.43
		c0,8.923-6.589,16.429-15.762,16.429c-9.173,0-15.762-7.506-15.762-16.429C376.122,273.139,382.711,265.634,391.884,265.634z"/>
	<path fill="#333333" d="M470.2,281.229c5.003-1.752,7.922-7.329,7.922-12.584c0-9.257-7.255-15.252-19.514-15.252H431v57h29.276
		c12.759,0,20.349-6.326,20.349-15.75C480.625,288.556,477.123,282.73,470.2,281.229z M444,265.394h12.44
		c5.42,0,8.172,2.122,8.172,5.708c0,3.67-2.919,6.292-8.172,6.292H444V265.394z M458.442,299.394H444v-12h14.692
		c5.17,0,8.088,2.164,8.088,5.667C466.781,296.396,464.196,299.394,458.442,299.394z"/>
	<path fill="#333333" d="M525,253.394v30.838c0,8.673-4.619,14.261-12.042,14.261c-7.422,0-11.958-5.588-11.958-14.261v-30.838h-15
		v30.588c0,17.597,10.779,27.688,26.958,27.688c16.263,0,27.042-10.091,27.042-27.688v-30.588H525z"/>
</g>
</svg>
