<?xml version="1.0" encoding="utf-8"?>
<!-- Generator: Adobe Illustrator 19.0.0, SVG Export Plug-In . SVG Version: 6.00 Build 0)  -->
<svg version="1.1" id="Capa_1" xmlns="http://www.w3.org/2000/svg" xmlns:xlink="http://www.w3.org/1999/xlink" x="0px" y="0px"
	 viewBox="-69.7 46.7 499.7 502.3" style="enable-background:new -69.7 46.7 499.7 502.3;" xml:space="preserve">
<style type="text/css">
	.st0{fill:#F57C00;}
	.st1{fill:#494949;}
</style>
<g>
	<path class="st0" d="M10.8,354.5c-7.6-1-24,0-29.2-6.1c-5.8-6.9-3.8-26.4-4.6-35.2c-0.9-10.1-4-22.5-2.1-32.6
		c2.3-12.6,11.7-12.5,22.4-13.4c21.7-1.7,20.7-16,28.6-32.3c3.3-6.8,7.4-10.5,15-11.4c8-0.9,24.8,1.1,18.3-12.8
		c-4.4-9.3-14.2-16.2-19.1-25.9c-5.3-10.7-8.2-22.5-8.5-34.4c-0.5-24.1,10.3-40.6,31.8-50.7c20.6-9.7,46.7-15.4,67.1-2.2
		c18.8,12.2,21.3,35,17.4,55.3c-4.1,21.2-12.9,43.3-28.2,58.8c-6.7,6.9-15.4,15.9-2.6,22.7c10.2,5.4,27.7,2.2,38.8,2
		c13.7-0.2,27.4-0.7,41.1-1.4c8-0.4,25.5,1.4,31.4-6.4c6.2-8.2-3-13.5-9.4-16.9c-9.5-4.9-16.8-10.4-22.8-19.5
		c-10.7-16.5-21.6-44.5-15.5-64.1c6.2-19.7,31.1-31.8,49.7-36.7c26-6.8,43.7,5.7,58.7,25.9c13.2,17.7,7.7,42.7-0.8,61.8
		c-4.8,11-11.9,20.2-21.9,27c-8.1,5.5-19.4,10.7-12.8,21.7c10.8,17.8,35,0.9,48.1,13.2c10.5,9.8,6.7,34.1,22.7,37.7
		c16.3,3.6,30.6-10.3,46.3-14.9c7.7-2.2,15.6,3.5,15.9,11.5c0.9,23.3,5.7,45.3,11.4,68.2c7.7,31.5-29.7,8.5-42.8,2.8
		c-16.2-7.1-46.3-17.2-55.6,6c-3.8,9.6,2.4,19.6-0.5,29.1c-3.4,11.2-17.8,11.2-27.5,12.1c-53.8,4.7-108.3-11.4-162.4-11.5
		c-14.3,0-28.6,0.6-42.9,2.2c-11.3,1.3-23,4.9-34.3,5.2C5.9,389.9,26.5,354.6,10.8,354.5z"/>
	<g>
		<path class="st1" d="M408.7,233.9c-2.5-1.9-5.8-2.4-8.8-1.5L323,255.8v-32.2c0-5.5-4.5-10-10-10h-19.9
			c18.2-15.4,29.8-38.5,29.8-64.2c0-46.4-37.7-84.1-84.1-84.1c-32,0-59.9,18-74.1,44.4c-14.2-26.4-42.1-44.4-74.1-44.4
			c-46.4,0-84.1,37.7-84.1,84.1c0,25.7,11.6,48.7,29.8,64.2H16.5c-5.5,0-10,4.5-10,10V256h-49c-5.5,0-10,4.5-10,10v90.5
			c0,5.5,4.5,10,10,10h49v37.4c0,5.5,4.5,10,10,10h124.2l-99.5,99.5c-3.9,3.9-3.9,10.2,0,14.1c1.9,1.9,4.5,2.9,7,2.9
			c2.6,0,5.1-1,7-2.9l99.5-99.5v92.4c0,5.5,4.5,10,10,10s10-4.5,10-10v-92.4l99.5,99.5c1.9,1.9,4.5,2.9,7,2.9s5.1-1,7-2.9
			c3.9-3.9,3.9-10.2,0-14.1l-99.5-99.5H313c5.5,0,10-4.5,10-10v-38l76.8,23.5c1,0.3,1.9,0.4,2.9,0.4c2.1,0,4.2-0.7,5.9-2
			c2.5-1.9,4-4.9,4-8V241.9C412.7,238.7,411.2,235.7,408.7,233.9z M238.9,85.3c35.4,0,64.2,28.8,64.2,64.2s-28.8,64.2-64.2,64.2
			s-64.2-28.8-64.2-64.2S203.5,85.3,238.9,85.3z M184.6,213.6h-39.7c8.1-6.8,14.8-15.1,19.9-24.5
			C169.8,198.5,176.6,206.8,184.6,213.6z M26.5,149.5c0-35.4,28.8-64.2,64.2-64.2s64.2,28.8,64.2,64.2s-28.8,64.2-64.2,64.2
			S26.5,184.8,26.5,149.5z M-32.5,346.5v-70.6h39v70.6H-32.5z M303.1,393.9H26.5v-37.4V266v-32.4h276.6v35.7v83.1V393.9z
			 M392.8,366.3L323,345v-68.3l69.8-21.3V366.3z"/>
		<circle class="st1" cx="90.7" cy="149.5" r="9.5"/>
		<circle class="st1" cx="238.9" cy="149.5" r="9.5"/>
	</g>
</g>
</svg>
