<?xml version="1.0" encoding="utf-8"?>
<!-- Generator: Adobe Illustrator 19.0.0, SVG Export Plug-In . SVG Version: 6.00 Build 0)  -->
<svg version="1.1" id="Capa_1" xmlns="http://www.w3.org/2000/svg" xmlns:xlink="http://www.w3.org/1999/xlink" x="0px" y="0px"
	 viewBox="-69.7 46.7 499.7 502.3" style="enable-background:new -69.7 46.7 499.7 502.3;" xml:space="preserve">
<style type="text/css">
	.st0{fill:#F57C00;}
	.st1{fill:#494949;}
</style>
<g>
	<path class="st0" d="M-7.4,347.3c-2.9-24.9-5.8-50-4.7-75.1c0.3-5.8-1.2-25.9,4.2-29.4c7.1-4.6,13.6,5.3,19.2,7.9
		c38.2,17.4,91.7-13.4,128.8-24.4c48.4-14.4,97.3-27.1,146.3-39c12.5-3,57.6-21.9,69.3-14.4c12.3,7.9,2.5,53.1,1.8,65.4
		c-2.7,50.9-2,103.5-8.2,154.1c-2.9,23.3-12,26.5-33.5,17.8c-22.4-9.1-44.6-11.6-68.3-15.7c-49-8.4-96.9-23.1-144.9-36
		c-21.5-5.8-43.7-14.1-65.7-17.3C20.7,339.1,8.1,346-7.4,347.3z"/>
	<path class="st1" d="M379.4,143.9c-2.4-1.9-5.6-2.5-8.6-1.8L36,228.5l-46.5-11.7c-3-0.7-6.1-0.1-8.6,1.8c-2.4,1.9-3.8,4.8-3.8,7.9
		v130.4c0,3.1,1.4,6,3.8,7.9s5.6,2.6,8.6,1.8L36,354.9l23.2,6l20.2,55.5c1.1,3.1,3.7,5.4,6.9,6.2l119.6,30.9
		c0.8,0.2,1.7,0.3,2.5,0.3c3,0,6-1.4,7.9-3.9l31.2-40.4l123.2,31.8c0.8,0.2,1.7,0.3,2.5,0.3c2.2,0,4.3-0.7,6.1-2.1
		c2.4-1.9,3.9-4.8,3.9-7.9V151.8C383.2,148.7,381.8,145.8,379.4,143.9z M36,334.7c-0.8,0-1.6,0.1-2.4,0.3L-3,344.2V239.3l36.6,9.2
		c1.6,0.4,3.3,0.4,4.9,0L307.6,179v225.4L38.5,335C37.7,334.8,36.9,334.7,36,334.7z M204.6,432.6L96.4,404.7L82.7,367l143.9,37.1
		L204.6,432.6z M363.3,418.8l-35.7-9.2V173.9l35.7-9.2V418.8z"/>
</g>
</svg>
