<?xml version="1.0" encoding="utf-8"?>
<!-- Generator: Adobe Illustrator 19.0.0, SVG Export Plug-In . SVG Version: 6.00 Build 0)  -->
<svg version="1.1" id="Capa_1" xmlns="http://www.w3.org/2000/svg" xmlns:xlink="http://www.w3.org/1999/xlink" x="0px" y="0px"
	 viewBox="-69.7 46.7 499.7 502.3" style="enable-background:new -69.7 46.7 499.7 502.3;" xml:space="preserve">
<style type="text/css">
	.st0{fill-rule:evenodd;clip-rule:evenodd;fill:#F57C00;}
	.st1{fill:#494949;}
</style>
<g>
	<path class="st0" d="M101.1,198.9c-37.5-28-23.7-59.4,19.4-79.8c14.1-6.7,126.5-10.9,142.4,4C343.9,199.5,128.3,219.3,101.1,198.9z
		"/>
	<path class="st1" d="M357.5,268.3h-30.7c-5.5,0-10,4.5-10,10v48.2h-23.3V70.9c0-5.5-4.5-10-10-10s-10,4.5-10,10v31.8H86.7V70.9
		c0-5.5-4.5-10-10-10c-5.5,0-10,4.5-10,10v255.6H44.4v-48.2c0-5.5-4.5-10-10-10H2.8c-5.5,0-10,4.5-10,10s4.5,10,10,10h21.6v48.2
		c0,5.5,4.5,10,10,10h16l113.7,89.9L62.1,517c-4.3,3.4-5.1,9.7-1.6,14c2,2.5,4.9,3.8,7.8,3.8c2.2,0,4.3-0.7,6.2-2.1L180.1,449
		l105.7,83.6c1.8,1.4,4,2.1,6.2,2.1c2.9,0,5.9-1.3,7.8-3.8c3.4-4.3,2.7-10.6-1.6-14l-102-80.6l113.7-89.9h16.8c5.5,0,10-4.5,10-10
		v-48.2h20.8c5.5,0,10-4.5,10-10S363,268.3,357.5,268.3z M273.6,122.6v71.1H86.7v-71.1H273.6z M86.7,213.6h186.9v112.9H86.7V213.6z
		 M82.5,346.4h195.2l-97.6,77.2L82.5,346.4z"/>
</g>
</svg>
