<?xml version="1.0" encoding="utf-8"?>
<!-- Generator: Adobe Illustrator 19.0.0, SVG Export Plug-In . SVG Version: 6.00 Build 0)  -->
<svg version="1.1" id="Capa_1" xmlns="http://www.w3.org/2000/svg" xmlns:xlink="http://www.w3.org/1999/xlink" x="0px" y="0px"
	 viewBox="0 0 600.3 540.9" style="enable-background:new 0 0 600.3 540.9;" xml:space="preserve">
<style type="text/css">
	.st0{fill:#F57C00;}
	.st1{fill:#515151;}
	.st2{fill:#F3F0E7;}
	.st3{fill:#EAE8DF;}
	.st4{fill-rule:evenodd;clip-rule:evenodd;fill:#231915;}
	.st5{fill-rule:evenodd;clip-rule:evenodd;fill:#F57C00;}
	.st6{fill:#231915;}
</style>
<g>
	<g>
		<g>
			<path id="XMLID_44_" class="st0" d="M405.5,374.7H199.3c-5.4,0-9.8-4.4-9.8-9.8v-18.1c0-5.4,4.4-9.8,9.8-9.8h206.2
				c5.4,0,9.8,4.4,9.8,9.8v18.1C415.3,370.3,410.9,374.7,405.5,374.7z"/>
		</g>
		<g>
			<path id="XMLID_43_" class="st0" d="M404.7,340H200.1l-10.6-177.9c0-8.8,7.2-16,16-16h193.8c8.8,0,16,7.2,16,16L404.7,340z"/>
		</g>
		<g>
			<g>
				<path id="XMLID_42_" class="st1" d="M224,340h-25.6v-45.5c0-3.1,2.5-5.6,5.6-5.6h14.5c3.1,0,5.6,2.5,5.6,5.6V340z"/>
			</g>
			<g>
				<path id="XMLID_41_" class="st1" d="M406.4,340h-25.6v-45.5c0-3.1,2.5-5.6,5.6-5.6h14.5c3.1,0,5.6,2.5,5.6,5.6V340z"/>
			</g>
		</g>
	</g>
	<g>
		<g>
			<g>
				<path id="XMLID_40_" class="st2" d="M367.3,212.1c-10.2-13.5-12.1-31.6-5-47l19.7-42.9c1.9-4.1-1.8-8.6-6.2-7.6
					c-34,7.9-138.3,39.9-151.1,136.5c-5.7,42.5,25.1,81.8,67.5,88c44.1,6.5,84.8-24.3,90.7-68.3
					C385.7,249.1,379.6,228.3,367.3,212.1z"/>
			</g>
			<g>
				<path id="XMLID_39_" class="st3" d="M382.8,270.8c2.9-21.7-3.2-42.5-15.5-58.7c-10.2-13.5-12.1-31.6-5-47l19.7-42.9
					c0.6-1.2,0.6-2.5,0.3-3.7c0-0.1-0.1-0.3-0.1-0.4c0,0,0,0,0,0c-31.9,40.1-34.3,48.2-23,100.2c13.6,62.6-19.1,125.5-95.8,110.7
					c0,0,0,0,0,0c8.7,5.1,18.4,8.7,28.8,10.2C336.2,345.6,376.9,314.8,382.8,270.8z"/>
			</g>
		</g>
		<g>
			<g>
				<g>
					<g>
						<circle id="XMLID_38_" class="st4" cx="274.7" cy="267" r="9.8"/>
					</g>
				</g>
				<g>
					<g>
						<ellipse id="XMLID_37_" class="st5" cx="269.1" cy="283.3" rx="11.7" ry="4.9"/>
					</g>
					<g>
						<ellipse id="XMLID_36_" class="st5" cx="338.4" cy="283.3" rx="11.7" ry="4.9"/>
					</g>
				</g>
				<g>
					<path id="XMLID_35_" class="st4" d="M303.7,286.5c5.4,0,9.8-4.4,9.8-9.8H294C294,282.2,298.3,286.5,303.7,286.5z"/>
				</g>
			</g>
			<g>
				<circle id="XMLID_34_" class="st2" cx="280.8" cy="259.6" r="4"/>
			</g>
			<g>
				<path id="XMLID_33_" class="st6" d="M338.4,276.8c-0.5,0-0.9-0.1-1.4-0.3l-14.1-6.6c-1.1-0.5-1.8-1.6-1.9-2.9
					c0-1.2,0.6-2.4,1.7-2.9l14.1-7.4c1.6-0.8,3.5-0.2,4.4,1.4c0.8,1.6,0.2,3.5-1.4,4.4l-8.3,4.4l8.2,3.8c1.6,0.8,2.3,2.7,1.6,4.3
					C340.8,276.1,339.6,276.8,338.4,276.8z"/>
			</g>
		</g>
	</g>
	<g>
		<g>
			<g id="XMLID_32_">
				<path id="XMLID_55_" class="st0" d="M261.6,426.4H31.4c-5.4,0-9.8-4.4-9.8-9.8v-22.1c0-5.4,4.4-9.8,9.8-9.8h230.1
					c5.4,0,9.8,4.4,9.8,9.8v22.1C271.4,422,267,426.4,261.6,426.4z"/>
			</g>
		</g>
		<g>
			<g id="XMLID_31_">
				<path id="XMLID_56_" class="st0" d="M259.6,387.7H33.4L21.6,190.9c0-9.8,7.9-17.7,17.7-17.7h214.4c9.8,0,17.7,7.9,17.7,17.7
					L259.6,387.7z"/>
			</g>
		</g>
		<g>
			<g>
				<path id="XMLID_30_" class="st1" d="M59.7,388.7H31.4v-50.9c0-3.1,2.5-5.6,5.6-5.6h17.2c3.1,0,5.6,2.5,5.6,5.6V388.7z"/>
			</g>
			<g>
				<path id="XMLID_29_" class="st1" d="M261.6,388.7h-28.3v-50.9c0-3.1,2.5-5.6,5.6-5.6H256c3.1,0,5.6,2.5,5.6,5.6V388.7z"/>
			</g>
		</g>
	</g>
	<g>
		<g>
			<path id="XMLID_28_" class="st0" d="M568.8,426.4H338.7c-5.4,0-9.8-4.4-9.8-9.8v-22.1c0-5.4,4.4-9.8,9.8-9.8h230.1
				c5.4,0,9.8,4.4,9.8,9.8v22.1C578.6,422,574.2,426.4,568.8,426.4z"/>
		</g>
		<g>
			<path id="XMLID_27_" class="st0" d="M566.9,387.7H340.6l-11.8-196.8c0-9.8,7.9-17.7,17.7-17.7h214.4c9.8,0,17.7,7.9,17.7,17.7
				L566.9,387.7z"/>
		</g>
		<g>
			<g>
				<path id="XMLID_26_" class="st1" d="M367,389.7h-28.3v-50.9c0-3.1,2.5-5.6,5.6-5.6h17.2c3.1,0,5.6,2.5,5.6,5.6V389.7z"/>
			</g>
			<g>
				<path id="XMLID_25_" class="st1" d="M568.8,389.7h-28.3v-50.9c0-3.1,2.5-5.6,5.6-5.6h17.2c3.1,0,5.6,2.5,5.6,5.6V389.7z"/>
			</g>
		</g>
	</g>
	<g>
		<g>
			<g>
				<path id="XMLID_24_" class="st2" d="M218.3,246.3c-11.3-14.9-13.3-35-5.5-52l21.8-47.5c2.1-4.6-2-9.5-6.9-8.4
					c-37.6,8.7-152.9,44.1-167.2,151c-6.3,47,27.8,90.4,74.7,97.4c48.7,7.2,93.8-26.9,100.3-75.6
					C238.7,287.2,231.9,264.2,218.3,246.3z"/>
			</g>
			<g>
				<path id="XMLID_23_" class="st3" d="M235.5,311.2c3.2-24-3.6-47-17.1-64.9c-11.3-14.9-13.3-35-5.5-52l21.8-47.5
					c0.6-1.4,0.7-2.8,0.4-4.1c-0.1-0.2-0.1-0.3-0.2-0.5c0,0,0,0,0,0c-35.3,44.4-37.9,53.3-25.5,110.8c15,69.2-21.1,138.8-106,122.4
					c0,0,0,0,0,0c9.6,5.6,20.4,9.6,31.9,11.3C183.9,394,229,359.9,235.5,311.2z"/>
			</g>
		</g>
		<g>
			<g>
				<g>
					<circle id="XMLID_22_" class="st4" cx="115.9" cy="307" r="10.8"/>
				</g>
				<g>
					<circle id="XMLID_21_" class="st4" cx="180.1" cy="307" r="10.8"/>
				</g>
			</g>
			<g>
				<g>
					<ellipse id="XMLID_20_" class="st5" cx="109.7" cy="325" rx="12.9" ry="5.4"/>
				</g>
				<g>
					<ellipse id="XMLID_19_" class="st5" cx="186.3" cy="325" rx="12.9" ry="5.4"/>
				</g>
			</g>
			<g>
				<path id="XMLID_18_" class="st4" d="M148,328.6c6,0,10.8-4.8,10.8-10.8h-21.6C137.2,323.8,142,328.6,148,328.6z"/>
			</g>
			<g>
				<circle id="XMLID_17_" class="st2" cx="122.6" cy="298.8" r="4.4"/>
			</g>
			<g>
				<circle id="XMLID_16_" class="st2" cx="187.1" cy="298.8" r="4.4"/>
			</g>
		</g>
	</g>
	<g>
		<g>
			<g>
				<path id="XMLID_14_" class="st2" d="M525.6,246.3c-11.3-14.9-13.3-35-5.5-52l21.8-47.5c2.1-4.6-2-9.5-6.9-8.4
					c-37.6,8.7-152.9,44.1-167.2,151c-6.3,47,27.8,90.4,74.7,97.4c48.7,7.2,93.8-26.9,100.3-75.6
					C545.9,287.2,539.1,264.2,525.6,246.3z"/>
			</g>
			<g>
				<path id="XMLID_12_" class="st3" d="M542.7,311.2c3.2-24-3.6-47-17.1-64.9c-11.3-14.9-13.3-35-5.5-52l21.8-47.5
					c0.6-1.4,0.7-2.8,0.4-4.1c-0.1-0.2-0.1-0.3-0.2-0.5c0,0,0,0,0,0c-35.3,44.4-37.9,53.3-25.5,110.8c15,69.2-21.1,138.8-106,122.4
					c0,0,0,0,0,0c9.6,5.6,20.4,9.6,31.9,11.3C491.2,394,536.2,359.9,542.7,311.2z"/>
			</g>
		</g>
		<g>
			<g>
				<circle id="XMLID_11_" class="st4" cx="423.1" cy="307" r="10.8"/>
			</g>
			<g>
				<g>
					<ellipse id="XMLID_10_" class="st5" cx="416.9" cy="325" rx="12.9" ry="5.4"/>
				</g>
				<g>
					<ellipse id="XMLID_9_" class="st5" cx="493.6" cy="325" rx="12.9" ry="5.4"/>
				</g>
			</g>
			<g>
				<path id="XMLID_8_" class="st6" d="M455.2,331.2c-7.4,0-13.4-6-13.4-13.4c0-1.4,1.2-2.6,2.6-2.6c1.4,0,2.6,1.2,2.6,2.6
					c0,4.5,3.7,8.2,8.2,8.2c4.5,0,8.2-3.7,8.2-8.2c0-1.4,1.2-2.6,2.6-2.6c1.4,0,2.6,1.2,2.6,2.6
					C468.6,325.2,462.6,331.2,455.2,331.2z"/>
			</g>
			<g>
				<ellipse id="XMLID_5_" class="st2" cx="428" cy="300.3" rx="6" ry="5.7"/>
			</g>
			<g>
				<ellipse id="XMLID_4_" class="st2" cx="422" cy="309.7" rx="4" ry="3.8"/>
			</g>
			<g>
				<circle id="XMLID_3_" class="st4" cx="487.3" cy="306.7" r="10.8"/>
			</g>
			<g>
				<ellipse id="XMLID_2_" class="st2" cx="492.2" cy="300" rx="6" ry="5.7"/>
			</g>
			<g>
				<ellipse id="XMLID_1_" class="st2" cx="486.2" cy="309.5" rx="4" ry="3.8"/>
			</g>
		</g>
	</g>
</g>
</svg>
