<?xml version="1.0" encoding="utf-8"?>
<!-- Generator: Adobe Illustrator 19.0.0, SVG Export Plug-In . SVG Version: 6.00 Build 0)  -->
<svg version="1.1" id="Capa_1" xmlns="http://www.w3.org/2000/svg" xmlns:xlink="http://www.w3.org/1999/xlink" x="0px" y="0px"
	 viewBox="0 0 600.3 540.9" style="enable-background:new 0 0 600.3 540.9;" xml:space="preserve">
<style type="text/css">
	.st0{fill:#F3F0E7;}
	.st1{fill:#D3D0CB;}
	.st2{fill:#515151;}
	.st3{fill:#EAE8DF;}
	.st4{fill:#D8D6CE;}
	.st5{fill-rule:evenodd;clip-rule:evenodd;fill:#F57C00;}
	.st6{fill-rule:evenodd;clip-rule:evenodd;fill:#231915;}
	.st7{fill:#231915;}
</style>
<g>
	<g>
		<g>
			<g>
				<path id="XMLID_57_" class="st0" d="M354.8,330.3c-2.2-0.4-3.7-2.4-3.4-4.7l42.8-270.9c0.4-2.2,2.4-3.7,4.7-3.4l173.2,27.4
					c2.2,0.4,3.7,2.4,3.4,4.7l-42.8,270.9c-0.4,2.2-2.4,3.7-4.7,3.4L354.8,330.3z"/>
			</g>
			<g>
				<path class="st1" d="M571.6,81.7c0.5,0.1,0.9,0.6,0.8,1.1l-42.8,270.9c-0.1,0.5-0.6,0.9-1.1,0.8l-173.2-27.4
					c-0.5-0.1-0.9-0.6-0.8-1.1l42.8-270.9c0.1-0.5,0.6-0.9,1.1-0.8L571.6,81.7 M572.5,75.6L399.3,48.2c-3.9-0.6-7.6,2.1-8.2,6
					l-42.8,270.9c-0.6,3.9,2.1,7.6,6,8.2l173.2,27.4c3.9,0.6,7.6-2.1,8.2-6l42.8-270.9C579.2,79.9,576.5,76.2,572.5,75.6L572.5,75.6
					z"/>
			</g>
		</g>
		<g>
			<polyline id="XMLID_54_" class="st1" points="567.4,85.6 525.7,349.6 359.4,323.3 401.1,59.3 567.4,85.6 			"/>
		</g>
		<g>
			
				<rect id="XMLID_53_" x="372.4" y="296.9" transform="matrix(0.9878 0.156 -0.156 0.9878 51.7217 -59.0485)" class="st2" width="59.4" height="6.2"/>
		</g>
		<g>
			
				<rect id="XMLID_52_" x="438" y="304.3" transform="matrix(0.9878 0.156 -0.156 0.9878 53.4538 -66.2849)" class="st2" width="22.1" height="6.2"/>
		</g>
		<g>
			
				<rect id="XMLID_51_" x="374.9" y="279.5" transform="matrix(0.9878 0.156 -0.156 0.9878 48.8159 -56.7398)" class="st2" width="22.1" height="6.2"/>
		</g>
		<g>
			
				<rect id="XMLID_50_" x="438.5" y="289.6" transform="matrix(0.9878 0.156 -0.156 0.9878 51.1602 -66.5332)" class="st2" width="22.1" height="6.2"/>
		</g>
		<g>
			
				<rect id="XMLID_49_" x="498.4" y="299" transform="matrix(0.9878 0.156 -0.156 0.9878 53.3701 -75.7654)" class="st2" width="22.1" height="6.2"/>
		</g>
		<g>
			
				<rect id="XMLID_48_" x="466.7" y="311.2" transform="matrix(0.9878 0.156 -0.156 0.9878 55.0562 -72.9788)" class="st2" width="51.7" height="6.2"/>
		</g>
		<g>
			
				<rect id="XMLID_47_" x="369.8" y="313" transform="matrix(0.9878 0.156 -0.156 0.9878 54.1959 -58.4563)" class="st2" width="59.4" height="6.2"/>
		</g>
		<g>
			
				<rect id="XMLID_46_" x="493.6" y="329.5" transform="matrix(0.9878 0.156 -0.156 0.9878 58.0699 -74.6404)" class="st2" width="22.1" height="6.2"/>
		</g>
		<g>
			
				<rect id="XMLID_45_" x="436" y="322.8" transform="matrix(0.9878 0.156 -0.156 0.9878 56.4919 -68.0482)" class="st2" width="51.7" height="6.2"/>
		</g>
		<g>
			<path id="XMLID_44_" class="st0" d="M406.7,174.5c-16.8-23,50.9-71.2,70.9-73.3c80.8-8.6,36.2,54.8,29.8,90.6
				c-5.4,30,6.8,100.9-60.7,65.5C409,237.4,438.1,193.4,406.7,174.5C391.3,153.3,439.1,194,406.7,174.5z"/>
		</g>
		<g>
			<path id="XMLID_43_" class="st0" d="M424.3,209L424.3,209"/>
		</g>
		<g>
			<path id="XMLID_42_" class="st0" d="M424.3,209L424.3,209"/>
		</g>
		<g>
			<path id="XMLID_41_" class="st1" d="M426.8,215.3c-1.5-3.9-0.8-8.3,1.9-11.5c8.7-10.4,26.5-31.3,34.8-27
				c11,5.8-3.5,70.5-13.9,71.8C440.8,249.8,431.5,227.2,426.8,215.3z"/>
		</g>
	</g>
	<g>
		<g>
			<g>
				<path id="XMLID_40_" class="st1" d="M74.6,358.7c-2.2,0.4-4.3-1.1-4.7-3.4L24.8,84.8c-0.4-2.2,1.1-4.3,3.4-4.7l173-28.8
					c2.2-0.4,4.3,1.1,4.7,3.4l45.1,270.5c0.4,2.2-1.1,4.3-3.4,4.7L74.6,358.7z"/>
			</g>
			<g>
				<path class="st2" d="M201.7,54.4c0.5-0.1,1,0.3,1.1,0.8l45.1,270.5c0.1,0.5-0.3,1-0.8,1.1l-173,28.8c-0.5,0.1-1-0.3-1.1-0.8
					L27.9,84.3c-0.1-0.5,0.3-1,0.8-1.1L201.7,54.4 M200.6,48.2l-173,28.8c-3.9,0.7-6.6,4.4-5.9,8.3l45.1,270.5
					c0.7,3.9,4.4,6.6,8.3,5.9l173-28.8c3.9-0.7,6.6-4.4,5.9-8.3L208.9,54.2C208.3,50.2,204.6,47.6,200.6,48.2L200.6,48.2z"/>
			</g>
		</g>
		<g>
			<polyline id="XMLID_37_" class="st2" points="199,59.4 242.9,323 76.8,350.7 32.9,87 199,59.4 			"/>
		</g>
		<g>
			
				<rect id="XMLID_36_" x="80.2" y="311.9" transform="matrix(0.9864 -0.1645 0.1645 0.9864 -50.3152 22.3649)" class="st0" width="59.4" height="6.2"/>
		</g>
		<g>
			
				<rect id="XMLID_35_" x="145.8" y="304.1" transform="matrix(0.9864 -0.1645 0.1645 0.9864 -48.3906 29.9719)" class="st0" width="22.1" height="6.2"/>
		</g>
		<g>
			
				<rect id="XMLID_34_" x="78.1" y="300.6" transform="matrix(0.9864 -0.1645 0.1645 0.9864 -48.7313 18.7859)" class="st0" width="22.1" height="6.2"/>
		</g>
		<g>
			
				<rect id="XMLID_33_" x="141.5" y="290" transform="matrix(0.9864 -0.1645 0.1645 0.9864 -46.1266 29.0812)" class="st0" width="22.1" height="6.2"/>
		</g>
		<g>
			
				<rect id="XMLID_32_" x="201.4" y="280" transform="matrix(0.9864 -0.1645 0.1645 0.9864 -43.6712 38.7865)" class="st0" width="22.1" height="6.2"/>
		</g>
		<g>
			
				<rect id="XMLID_31_" x="174.4" y="296.9" transform="matrix(0.9864 -0.1645 0.1645 0.9864 -46.6103 37.009)" class="st0" width="51.7" height="6.2"/>
		</g>
		<g>
			
				<rect id="XMLID_30_" x="82.9" y="328" transform="matrix(0.9864 -0.1645 0.1645 0.9864 -52.9163 23.0229)" class="st0" width="59.4" height="6.2"/>
		</g>
		<g>
			
				<rect id="XMLID_29_" x="206.5" y="310.5" transform="matrix(0.9864 -0.1645 0.1645 0.9864 -48.6118 40.0365)" class="st0" width="22.1" height="6.2"/>
		</g>
		<g>
			
				<rect id="XMLID_28_" x="148.9" y="317.6" transform="matrix(0.9864 -0.1645 0.1645 0.9864 -50.3652 33.1064)" class="st0" width="51.7" height="6.2"/>
		</g>
		<g>
			<path id="XMLID_27_" class="st0" d="M74.6,194.5c-21.3-15.2-4-30.5,6.6-42.1c12-13.1,23.7-40.5,37.5-49.8
				c14.7-9.9,45.6-8.4,58.1,5.9c17.3,19.8-7.8,39-5.1,61.8c2.4,20.1,26,30.2,22.9,53.5c-3,23-23.7,34.1-45.4,37
				C89.8,268.6,111.5,202.8,74.6,194.5z"/>
		</g>
	</g>
	<g>
		<g>
			<g>
				<path id="XMLID_26_" class="st1" d="M212.1,302.2c-2.2,0-4.1-1.8-4.1-4.1V23.9c0-2.2,1.8-4.1,4.1-4.1h175.4
					c2.2,0,4.1,1.8,4.1,4.1v274.2c0,2.2-1.8,4.1-4.1,4.1H212.1z"/>
			</g>
			<g>
				<path class="st0" d="M387.5,22.9c0.5,0,1,0.4,1,1v274.2c0,0.5-0.4,1-1,1H212.1c-0.5,0-1-0.4-1-1V23.9c0-0.5,0.4-1,1-1H387.5
					 M387.5,16.7H212.1c-4,0-7.2,3.2-7.2,7.2v274.2c0,4,3.2,7.2,7.2,7.2h175.4c4,0,7.2-3.2,7.2-7.2V23.9
					C394.7,19.9,391.5,16.7,387.5,16.7L387.5,16.7z"/>
			</g>
		</g>
		<g>
			<polyline id="XMLID_23_" class="st0" points="384,27.4 384,294.6 215.6,294.6 215.6,27.4 384,27.4 			"/>
		</g>
		<g>
			<rect id="XMLID_22_" x="224.4" y="261.8" class="st2" width="59.4" height="6.2"/>
		</g>
		<g>
			<rect id="XMLID_21_" x="290.7" y="261.8" class="st2" width="22.1" height="6.2"/>
		</g>
		<g>
			<rect id="XMLID_20_" x="224.4" y="247.2" class="st2" width="22.1" height="6.2"/>
		</g>
		<g>
			<rect id="XMLID_19_" x="288.8" y="247.2" class="st2" width="22.1" height="6.2"/>
		</g>
		<g>
			<rect id="XMLID_18_" x="349.5" y="247.2" class="st2" width="22.1" height="6.2"/>
		</g>
		<g>
			<rect id="XMLID_17_" x="319.8" y="261.8" class="st2" width="51.7" height="6.2"/>
		</g>
		<g>
			<rect id="XMLID_16_" x="224.4" y="278.1" class="st2" width="59.4" height="6.2"/>
		</g>
		<g>
			<rect id="XMLID_15_" x="349.5" y="278.1" class="st2" width="22.1" height="6.2"/>
		</g>
		<g>
			<rect id="XMLID_14_" x="291.3" y="278.1" class="st2" width="51.7" height="6.2"/>
		</g>
		<g>
			<path id="XMLID_13_" class="st1" d="M372.7,131.4c18.5,18.5-1.1,30.8-13.4,40.5c-14,11-30,36.1-45.2,43
				c-16.1,7.4-46.3,0.8-56.4-15.4c-13.9-22.4,14.1-37.2,15.2-60.1c0.9-20.2-20.7-34.1-13.8-56.6c6.8-22.2,29-29.7,50.9-29
				C370,55.8,337.7,117.1,372.7,131.4z"/>
		</g>
		<g>
			<path id="XMLID_12_" class="st2" d="M258,212.2c-19.6-0.3-17.9-58.2-10.6-67.7c32.6-43.3,36.2-1.8,55.2,17.3
				c15.6,15.7,60.9,29.7,22,58.7C292.9,244.2,285.9,201,258,212.2C240.3,211.9,281.6,202.8,258,212.2z"/>
		</g>
	</g>
	<g>
		<g>
			<path id="XMLID_11_" class="st3" d="M366.9,365.6c-12.7-16.8-15-39.2-6.2-58.3l24.4-53.3c2.3-5.1-2.2-10.7-7.7-9.4
				c-42.2,9.8-171.5,49.5-187.5,169.4c-7,52.7,31.2,101.5,83.8,109.2c54.7,8.1,105.2-30.2,112.5-84.8
				C389.7,411.5,382.1,385.6,366.9,365.6z"/>
			<path id="XMLID_10_" class="st4" d="M386.1,438.4c3.6-26.9-4-52.7-19.2-72.8c-12.7-16.8-15-39.2-6.2-58.3l24.4-53.3
				c0.7-1.5,0.8-3.1,0.4-4.6c-0.1-0.2-0.1-0.4-0.2-0.5c0,0,0,0,0,0c-39.6,49.8-42.5,59.8-28.6,124.3
				c16.8,77.7-23.6,155.7-118.9,137.3c0,0,0,0,0,0c10.7,6.3,22.8,10.7,35.8,12.7C328.3,531.2,378.8,493,386.1,438.4z"/>
		</g>
	</g>
	<g>
		<g>
			<ellipse id="XMLID_9_" class="st5" cx="245" cy="454.8" rx="14.5" ry="6.1"/>
			<ellipse id="XMLID_8_" class="st5" cx="331" cy="454.8" rx="14.5" ry="6.1"/>
		</g>
		<path id="XMLID_7_" class="st6" d="M288,458.8c6.7,0,12.1-5.4,12.1-12.1h-24.3C275.9,453.4,281.3,458.8,288,458.8z"/>
		<g>
			<g>
				<path id="XMLID_6_" class="st7" d="M266.5,416.1c-4.4-4.4-11.3-4.6-16-0.6l0,0c-4.6-4.6-12.1-4.6-16.7,0
					c-4.6,4.6-4.6,12.1,0,16.7l16.7,16.7l16.7-16.7l0,0C271.1,427.4,270.8,420.5,266.5,416.1z"/>
				<circle id="XMLID_5_" class="st0" cx="265" cy="418" r="4.9"/>
				<circle id="XMLID_4_" class="st0" cx="253.7" cy="428.6" r="7.2"/>
			</g>
			<g>
				<path id="XMLID_3_" class="st7" d="M342.2,416.1c-4.4-4.4-11.3-4.6-16-0.6l0,0c-4.6-4.6-12.1-4.6-16.7,0
					c-4.6,4.6-4.6,12.1,0,16.7l16.7,16.7l16.7-16.7l0,0C346.8,427.4,346.6,420.5,342.2,416.1z"/>
				<circle id="XMLID_2_" class="st0" cx="340.7" cy="418" r="4.9"/>
				<circle id="XMLID_1_" class="st0" cx="329.4" cy="428.6" r="7.2"/>
			</g>
		</g>
	</g>
</g>
</svg>
