<?xml version="1.0" encoding="utf-8"?>
<!-- Generator: Adobe Illustrator 19.0.0, SVG Export Plug-In . SVG Version: 6.00 Build 0)  -->
<svg version="1.1" id="Capa_1" xmlns="http://www.w3.org/2000/svg" xmlns:xlink="http://www.w3.org/1999/xlink" x="0px" y="0px"
	 viewBox="0 0 600.3 540.9" style="enable-background:new 0 0 600.3 540.9;" xml:space="preserve">
<style type="text/css">
	.st0{fill:#F3F0E7;stroke:#D3D0CB;stroke-width:4;stroke-miterlimit:10;}
	.st1{fill:#D3D0CB;}
	.st2{fill:none;stroke:#F3F0E7;stroke-width:4;stroke-miterlimit:10;}
	.st3{fill:#F3F0E7;}
	.st4{fill:#6CB753;}
	.st5{fill:#EAE8DF;}
	.st6{fill:#E2DFD6;}
	.st7{fill-rule:evenodd;clip-rule:evenodd;fill:none;stroke:#231915;stroke-width:5;stroke-linecap:round;stroke-miterlimit:10;}
	.st8{fill-rule:evenodd;clip-rule:evenodd;fill:#F57C00;}
	.st9{fill:#231915;}
	.st10{fill-rule:evenodd;clip-rule:evenodd;fill:#231915;}
	.st11{fill-rule:evenodd;clip-rule:evenodd;fill:none;stroke:#231915;stroke-width:4;stroke-linecap:round;stroke-miterlimit:10;}
</style>
<g id="XMLID_84_">
	<g>
		<path id="XMLID_125_" class="st0" d="M450.4,345.1H149.9c-13.7,0-24.7-11.1-24.7-24.7V66c0-13.7,11.1-24.7,24.7-24.7h300.5
			c13.7,0,24.7,11.1,24.7,24.7v254.3C475.1,334,464,345.1,450.4,345.1z"/>
		<path id="XMLID_124_" class="st1" d="M445.1,328.6H155.2c-8.6,0-15.6-7-15.6-15.6V73.4c0-8.6,7-15.6,15.6-15.6h289.9
			c8.6,0,15.6,7,15.6,15.6V313C460.7,321.6,453.7,328.6,445.1,328.6z"/>
		<g>
			<path id="XMLID_123_" class="st0" d="M196.9,76.5h-9.3c-3.2,0-5.9-2.6-5.9-5.9V20.7c0-3.2,2.6-5.9,5.9-5.9h9.3
				c3.2,0,5.9,2.6,5.9,5.9v49.9C202.8,73.9,200.1,76.5,196.9,76.5z"/>
			<path id="XMLID_122_" class="st0" d="M412.7,76.5h-9.3c-3.2,0-5.9-2.6-5.9-5.9V20.7c0-3.2,2.6-5.9,5.9-5.9h9.3
				c3.2,0,5.9,2.6,5.9,5.9v49.9C418.6,73.9,415.9,76.5,412.7,76.5z"/>
		</g>
		<g>
			<g>
				<line id="XMLID_121_" class="st2" x1="139.6" y1="214.4" x2="460.7" y2="214.4"/>
				<line id="XMLID_120_" class="st2" x1="139.6" y1="273.9" x2="460.7" y2="273.9"/>
				<line id="XMLID_119_" class="st2" x1="135.8" y1="155.2" x2="460.7" y2="155.2"/>
				<line id="XMLID_118_" class="st2" x1="139.6" y1="333.4" x2="460.7" y2="333.4"/>
			</g>
			<line id="XMLID_117_" class="st2" x1="193.9" y1="155.2" x2="193.9" y2="333.4"/>
			<line id="XMLID_116_" class="st2" x1="264.7" y1="155.2" x2="264.7" y2="333.4"/>
			<line id="XMLID_115_" class="st2" x1="335.5" y1="155.2" x2="335.5" y2="333.4"/>
			<line id="XMLID_114_" class="st2" x1="406.3" y1="155.2" x2="406.3" y2="333.4"/>
		</g>
		<path id="XMLID_113_" class="st3" d="M318.5,66.3c0-0.7,0-1.3,0-2"/>
		<path id="XMLID_112_" class="st4" d="M238.8,166.9c-3.3,3.9-6.3,8-9.1,12.2c-3.9,5.8-2,5.9-8.4,2.9c-3.5-1.7-17.2-9.2-20.2-4.9
			c7.8,8.9,24.6,37.8,39.3,22.6c9.1-9.4,16.2-21.9,23.8-32.5c8-11.2,15.9-22.5,23.6-33.8C287.8,133.4,260.7,140.8,238.8,166.9z"/>
	</g>
	<g>
		<g>
			<g>
				<path id="XMLID_111_" class="st5" d="M394.6,324.9c-13.3-17.6-15.7-41.2-6.5-61.2l25.6-55.9c2.5-5.4-2.3-11.2-8.1-9.9
					c-44.3,10.3-180.1,51.9-196.8,177.8c-7.4,55.3,32.7,106.5,87.9,114.6c57.4,8.5,110.4-31.7,118.1-89
					C418.6,373.1,410.6,346,394.6,324.9z"/>
				<path id="XMLID_110_" class="st6" d="M414.8,401.4c3.8-28.3-4.2-55.4-20.2-76.4c-13.3-17.6-15.7-41.2-6.5-61.2l25.6-55.9
					c0.7-1.6,0.8-3.3,0.4-4.8c-0.1-0.2-0.1-0.4-0.2-0.6c0,0,0,0,0,0c-41.6,52.2-44.7,62.8-30,130.5
					c17.7,81.5-24.8,163.5-124.8,144.1c0,0,0,0,0,0c11.3,6.7,24,11.3,37.6,13.3C354.1,498.8,407.2,458.7,414.8,401.4z"/>
			</g>
			<g>
				<g>
					<path id="XMLID_109_" class="st7" d="M284.5,391.7c0,7-6.2,12.7-13.9,12.7c-7.7,0-13.9-5.7-13.9-12.7"/>
					<path id="XMLID_108_" class="st7" d="M366.8,391.7c0,7-6.2,12.7-13.9,12.7c-7.7,0-13.9-5.7-13.9-12.7"/>
				</g>
				<g>
					<ellipse id="XMLID_107_" class="st8" cx="266.7" cy="417.4" rx="15.2" ry="6.4"/>
					<ellipse id="XMLID_106_" class="st8" cx="357" cy="417.4" rx="15.2" ry="6.4"/>
				</g>
				<ellipse id="XMLID_105_" class="st9" cx="311.8" cy="415" rx="9.5" ry="15.3"/>
			</g>
		</g>
		<g>
			<g>
				<path id="XMLID_104_" class="st3" d="M241.6,350.2c-15.3-15.9-20.5-39-13.7-60l18.8-58.6c1.8-5.6-3.6-10.9-9.2-8.9
					c-42.8,15.5-172.7,72.8-174.4,199.8c-0.8,55.8,45.1,101.9,100.9,103.4c58,1.6,105.9-44.5,106.7-102.3
					C271.1,395.2,259.9,369.2,241.6,350.2z"/>
				<path id="XMLID_103_" class="st5" d="M270.7,423.7c0.4-28.5-10.7-54.5-29.1-73.5c-15.3-15.9-20.5-39-13.7-60l18.8-58.6
					c0.5-1.7,0.4-3.4-0.2-4.8c-0.1-0.2-0.2-0.4-0.2-0.5c0,0,0,0,0,0c-35.1,56.8-36.9,67.6-14.4,133.1
					c27.2,78.9-5.3,165.2-106.9,157.9c0,0,0,0,0,0c12,5.3,25.1,8.4,38.9,8.7C221.9,527.6,269.9,481.5,270.7,423.7z"/>
			</g>
			<g>
				<g>
					<circle id="XMLID_102_" class="st10" cx="130.3" cy="435.4" r="12.7"/>
					<circle id="XMLID_101_" class="st10" cx="205.3" cy="426.4" r="12.7"/>
				</g>
				<g>
					
						<ellipse id="XMLID_100_" transform="matrix(0.993 -0.1182 0.1182 0.993 -53.1898 18.0477)" class="st8" cx="125.5" cy="457.3" rx="15.2" ry="6.4"/>
					
						<ellipse id="XMLID_99_" transform="matrix(0.993 -0.1182 0.1182 0.993 -51.2993 28.5705)" class="st8" cx="215.1" cy="446.6" rx="15.2" ry="6.4"/>
				</g>
				<path id="XMLID_98_" class="st10" d="M170.8,456.2c7-0.8,12-7.2,11.1-14.1l-25.3,3C157.5,452,163.9,457,170.8,456.2z"/>
				<circle id="XMLID_97_" class="st3" cx="137" cy="424.9" r="5.2"/>
				<circle id="XMLID_96_" class="st3" cx="212.4" cy="415.9" r="5.2"/>
			</g>
		</g>
		<g>
			<g>
				<path id="XMLID_95_" class="st3" d="M510.5,381.9c-10.2-16.4-10.5-37.1-0.9-53.9l26.7-46.7c2.6-4.5-1.1-10-6.3-9.3
					c-39.4,5.5-161.1,31-185.6,139.4c-10.8,47.6,20.1,95.4,67.6,106.9c49.4,11.9,98.8-18.9,109.9-68.2
					C527.5,425.8,522.7,401.5,510.5,381.9z"/>
				<path id="XMLID_94_" class="st5" d="M522,450.1c5.5-24.3,0.7-48.6-11.6-68.2c-10.2-16.4-10.5-37.1-0.9-53.9l26.7-46.7
					c0.8-1.4,1-2.8,0.7-4.1c0-0.2-0.1-0.3-0.1-0.5c0,0,0,0,0,0c-40.4,42.3-43.9,51.2-36.4,111.4c9,72.5-34.5,140.5-120.2,115.8
					c0,0,0,0,0,0c9.3,6.7,20,11.7,31.7,14.5C461.5,530.3,510.9,499.5,522,450.1z"/>
			</g>
			<g>
				<circle id="XMLID_93_" class="st10" cx="399.7" cy="434.7" r="11.1"/>
				<g>
					
						<ellipse id="XMLID_92_" transform="matrix(0.9959 9.012570e-02 -9.012570e-02 0.9959 42.3825 -33.4563)" class="st8" cx="391.7" cy="452.6" rx="13.3" ry="5.6"/>
					
						<ellipse id="XMLID_91_" transform="matrix(0.9959 9.012570e-02 -9.012570e-02 0.9959 43.3445 -40.5186)" class="st8" cx="470.3" cy="459.7" rx="13.3" ry="5.6"/>
				</g>
				<path id="XMLID_90_" class="st11" d="M420.6,447.7c-0.6,6.1,4,11.5,10.1,12.1c6.1,0.6,11.5-4,12.1-10.1"/>
				
					<ellipse id="XMLID_89_" transform="matrix(0.9959 9.012570e-02 -9.012570e-02 0.9959 40.2445 -34.7884)" class="st3" cx="405.3" cy="428.2" rx="6.1" ry="5.8"/>
				
					<ellipse id="XMLID_88_" transform="matrix(0.9959 9.012570e-02 -9.012570e-02 0.9959 41.0391 -34.1207)" class="st3" cx="398.3" cy="437.4" rx="4.1" ry="3.9"/>
				<circle id="XMLID_87_" class="st10" cx="465.6" cy="440.4" r="11.1"/>
				
					<ellipse id="XMLID_86_" transform="matrix(0.9959 9.012570e-02 -9.012570e-02 0.9959 41.0261 -40.7033)" class="st3" cx="471.2" cy="433.9" rx="6.1" ry="5.8"/>
				
					<ellipse id="XMLID_85_" transform="matrix(0.9959 9.012570e-02 -9.012570e-02 0.9959 41.8206 -40.0356)" class="st3" cx="464.2" cy="443.1" rx="4.1" ry="3.9"/>
			</g>
		</g>
	</g>
</g>
</svg>
